<?xml version="1.0" encoding="utf-8" standalone="no"?>
<!DOCTYPE svg PUBLIC "-//W3C//DTD SVG 1.1//EN"
  "http://www.w3.org/Graphics/SVG/1.1/DTD/svg11.dtd">
<svg xmlns:xlink="http://www.w3.org/1999/xlink" width="871.2pt" height="328.176pt" viewBox="0 0 871.2 328.176" xmlns="http://www.w3.org/2000/svg" version="1.1">
 <metadata>
  <rdf:RDF xmlns:dc="http://purl.org/dc/elements/1.1/" xmlns:cc="http://creativecommons.org/ns#" xmlns:rdf="http://www.w3.org/1999/02/22-rdf-syntax-ns#">
   <cc:Work>
    <dc:type rdf:resource="http://purl.org/dc/dcmitype/StillImage"/>
    <dc:date>2026-07-21T22:58:34.545738</dc:date>
    <dc:format>image/svg+xml</dc:format>
    <dc:creator>
     <cc:Agent>
      <dc:title>Matplotlib v3.10.8, https://matplotlib.org/</dc:title>
     </cc:Agent>
    </dc:creator>
   </cc:Work>
  </rdf:RDF>
 </metadata>
 <defs>
  <style type="text/css">*{stroke-linejoin: round; stroke-linecap: butt}</style>
 </defs>
 <g id="figure_1">
  <g id="patch_1">
   <path d="M 0 328.176 
L 871.2 328.176 
L 871.2 0 
L 0 0 
z
" style="fill: #ffffff"/>
  </g>
  <g id="axes_1">
   <g id="patch_2">
    <path d="M 28.35 126.972 
L 409.05 126.972 
L 409.05 96.7936 
L 28.35 96.7936 
z
" clip-path="url(#p1f17e4f854)" style="fill: #dbeafe; stroke: #1e40af; stroke-linejoin: miter"/>
   </g>
   <g id="patch_3">
    <path d="M 36.81 170.084 
L 74.88 170.084 
L 74.88 139.9056 
L 36.81 139.9056 
z
" clip-path="url(#p1f17e4f854)" style="fill: #bfdbfe; stroke: #1e3a8a; stroke-linejoin: miter"/>
   </g>
   <g id="patch_4">
    <path d="M 83.34 170.084 
L 121.41 170.084 
L 121.41 139.9056 
L 83.34 139.9056 
z
" clip-path="url(#p1f17e4f854)" style="fill: #bfdbfe; stroke: #1e3a8a; stroke-linejoin: miter"/>
   </g>
   <g id="patch_5">
    <path d="M 129.87 170.084 
L 167.94 170.084 
L 167.94 139.9056 
L 129.87 139.9056 
z
" clip-path="url(#p1f17e4f854)" style="fill: #bfdbfe; stroke: #1e3a8a; stroke-linejoin: miter"/>
   </g>
   <g id="patch_6">
    <path d="M 176.4 170.084 
L 214.47 170.084 
L 214.47 139.9056 
L 176.4 139.9056 
z
" clip-path="url(#p1f17e4f854)" style="fill: #bfdbfe; stroke: #1e3a8a; stroke-linejoin: miter"/>
   </g>
   <g id="patch_7">
    <path d="M 163.71 248.97896 
L 273.69 248.97896 
Q 274.959 248.97896 274.959 247.6856 
L 274.959 208.8848 
Q 274.959 207.59144 273.69 207.59144 
L 163.71 207.59144 
Q 162.441 207.59144 162.441 208.8848 
L 162.441 247.6856 
Q 162.441 248.97896 163.71 248.97896 
z
" clip-path="url(#p1f17e4f854)" style="fill: #fde68a; stroke: #92400e; stroke-linejoin: miter"/>
   </g>
   <g id="patch_8">
    <path d="M 155.25 307.18016 
L 282.15 307.18016 
Q 283.419 307.18016 283.419 305.8868 
L 283.419 273.5528 
Q 283.419 272.25944 282.15 272.25944 
L 155.25 272.25944 
Q 153.981 272.25944 153.981 273.5528 
L 153.981 305.8868 
Q 153.981 307.18016 155.25 307.18016 
z
" clip-path="url(#p1f17e4f854)" style="fill: #fecaca; stroke: #991b1b; stroke-linejoin: miter"/>
   </g>
   <g id="line2d_1">
    <path d="M 32.58 111.8828 
L 38.127889 108.114806 
L 41.826482 105.981702 
L 43.675779 105.104471 
L 45.525075 104.380997 
L 47.374372 103.827692 
L 49.223668 103.457106 
L 51.072965 103.277646 
L 52.922261 103.293383 
L 54.771558 103.503959 
L 56.620854 103.904599 
L 58.470151 104.486213 
L 60.319447 105.235609 
L 62.168744 106.135789 
L 65.867337 108.303861 
L 71.415226 112.091756 
L 76.963116 115.837635 
L 80.661709 117.934518 
L 82.511005 118.788286 
L 84.360302 119.485412 
L 86.209598 120.010084 
L 88.058894 120.350398 
L 89.908191 120.498636 
L 91.757487 120.451435 
L 93.606784 120.209866 
L 95.45608 119.779408 
L 97.305377 119.169826 
L 99.154673 118.394948 
L 101.00397 117.47235 
L 104.702563 115.270582 
L 110.250452 111.46501 
L 113.949045 108.926356 
L 117.647638 106.654432 
L 119.496935 105.684017 
L 121.346231 104.854213 
L 123.195528 104.183844 
L 125.044824 103.688115 
L 126.894121 103.378272 
L 128.743417 103.261342 
L 130.592714 103.33998 
L 132.44201 103.6124 
L 134.291307 104.072423 
L 136.140603 104.709615 
L 137.989899 105.50952 
L 141.688492 107.521616 
L 145.387085 109.927179 
L 152.784271 115.034665 
L 156.482864 117.275791 
L 158.332161 118.225007 
L 160.181457 119.030359 
L 162.030754 119.673578 
L 163.88005 120.140074 
L 165.729347 120.419263 
L 167.578643 120.504815 
L 169.42794 120.394787 
L 171.277236 120.091676 
L 173.126533 119.602358 
L 174.975829 118.937931 
L 176.825126 118.113468 
L 180.523719 116.062446 
L 184.222312 113.634336 
L 191.619497 108.537365 
L 195.31809 106.328354 
L 197.167387 105.400894 
L 199.016683 104.620467 
L 200.86598 104.004776 
L 202.715276 103.567788 
L 204.564573 103.319416 
L 206.413869 103.265292 
L 208.263166 103.406645 
L 210.112462 103.740269 
L 211.961759 104.258596 
L 213.811055 104.949867 
L 215.660352 105.798403 
L 219.358945 107.887146 
L 223.057538 110.336378 
L 230.454724 115.419839 
L 234.153317 117.595438 
L 236.002613 118.500598 
L 237.85191 119.255642 
L 239.701206 119.843442 
L 241.550503 120.250666 
L 243.399799 120.468075 
L 245.249095 120.490739 
L 247.098392 120.318143 
L 248.947688 119.954203 
L 250.796985 119.407173 
L 252.646281 118.689462 
L 254.495578 117.817352 
L 258.194171 115.692114 
L 261.892764 113.2232 
L 269.28995 108.156234 
L 272.988543 106.015325 
L 274.837839 105.132998 
L 276.687136 104.403781 
L 278.536432 103.844216 
L 280.385729 103.466995 
L 282.235025 103.280677 
L 284.084322 103.289486 
L 285.933618 103.493223 
L 287.782915 103.887266 
L 289.632211 104.462678 
L 291.481508 105.206406 
L 293.330804 106.101579 
L 297.029397 108.262063 
L 300.72799 110.74921 
L 306.275879 114.598468 
L 309.974472 116.906159 
L 311.823769 117.901666 
L 313.673065 118.760642 
L 315.522362 119.463604 
L 317.371658 119.994605 
L 319.220955 120.3416 
L 321.070251 120.496719 
L 322.919548 120.456442 
L 324.768844 120.221683 
L 326.618141 119.797768 
L 328.467437 119.194312 
L 330.316734 118.425004 
L 332.16603 117.507294 
L 335.864623 115.312834 
L 341.412513 111.510961 
L 345.111106 108.969608 
L 348.809698 106.691084 
L 350.658995 105.716079 
L 352.508291 104.880958 
L 354.357588 104.204664 
L 356.206884 103.702539 
L 358.056181 103.385972 
L 359.905477 103.262145 
L 361.754774 103.333866 
L 363.60407 103.599509 
L 365.453367 104.053047 
L 367.302663 104.684192 
L 369.15196 105.478629 
L 372.850553 107.481997 
L 376.549146 109.882407 
L 385.795628 116.164375 
L 389.494221 118.193754 
L 391.343518 119.00453 
L 393.192814 119.653758 
L 395.042111 120.126712 
L 396.891407 120.412664 
L 398.740704 120.505127 
L 400.59 120.402004 
L 400.59 120.402004 
" clip-path="url(#p1f17e4f854)" style="fill: none; stroke: #1d4ed8; stroke-width: 0.8; stroke-linecap: square"/>
   </g>
   <g id="text_1">
    <!-- X₁ -->
    <g transform="translate(50.958281 157.478238) scale(0.09 -0.09)">
     <defs>
      <path id="DejaVuSans-58" d="M 403 4666 
L 1081 4666 
L 2241 2931 
L 3406 4666 
L 4084 4666 
L 2584 2425 
L 4184 0 
L 3506 0 
L 2194 1984 
L 872 0 
L 191 0 
L 1856 2491 
L 403 4666 
z
" transform="scale(0.015625)"/>
      <path id="DejaVuSans-2081" d="M 488 319 
L 1125 319 
L 1125 2229 
L 428 2101 
L 428 2463 
L 1147 2585 
L 1575 2585 
L 1575 319 
L 2216 319 
L 2216 -24 
L 488 -24 
L 488 319 
z
" transform="scale(0.015625)"/>
     </defs>
     <use xlink:href="#DejaVuSans-58"/>
     <use xlink:href="#DejaVuSans-2081" transform="translate(68.505859 0)"/>
    </g>
   </g>
   <g id="text_2">
    <!-- X₂ -->
    <g transform="translate(97.488281 157.478238) scale(0.09 -0.09)">
     <defs>
      <path id="DejaVuSans-2082" d="M 838 332 
L 2163 332 
L 2163 -24 
L 294 -24 
L 294 319 
Q 400 416 597 591 
Q 1672 1544 1672 1838 
Q 1672 2044 1509 2170 
Q 1347 2297 1081 2297 
Q 919 2297 728 2242 
Q 538 2188 313 2079 
L 313 2463 
Q 553 2551 761 2594 
Q 969 2638 1147 2638 
Q 1600 2638 1872 2432 
Q 2144 2226 2144 1888 
Q 2144 1454 1109 566 
Q 934 416 838 332 
z
" transform="scale(0.015625)"/>
     </defs>
     <use xlink:href="#DejaVuSans-58"/>
     <use xlink:href="#DejaVuSans-2082" transform="translate(68.505859 0)"/>
    </g>
   </g>
   <g id="text_3">
    <!-- … -->
    <g transform="translate(144.405 157.478238) scale(0.09 -0.09)">
     <defs>
      <path id="DejaVuSans-2026" d="M 2869 794 
L 3531 794 
L 3531 0 
L 2869 0 
L 2869 794 
z
M 4997 794 
L 5663 794 
L 5663 0 
L 4997 0 
L 4997 794 
z
M 738 794 
L 1403 794 
L 1403 0 
L 738 0 
L 738 794 
z
" transform="scale(0.015625)"/>
     </defs>
     <use xlink:href="#DejaVuSans-2026"/>
    </g>
   </g>
   <g id="text_4">
    <!-- Xₛ -->
    <g transform="translate(190.673438 157.478238) scale(0.09 -0.09)">
     <defs>
      <path id="DejaVuSans-209b" d="M 1931 1929 
L 1931 1626 
Q 1778 1694 1613 1729 
Q 1450 1763 1272 1763 
Q 1000 1763 866 1691 
Q 731 1616 731 1469 
Q 731 1357 828 1294 
Q 925 1229 1216 1172 
L 1341 1147 
Q 1731 1072 1888 941 
Q 2050 807 2050 566 
Q 2050 294 1806 135 
Q 1566 -24 1141 -24 
Q 963 -24 769 7 
Q 578 38 366 97 
L 366 432 
Q 566 338 763 291 
Q 956 244 1147 244 
Q 1403 244 1540 322 
Q 1678 401 1678 541 
Q 1678 672 1578 744 
Q 1491 807 1144 879 
L 1019 904 
Q 681 969 531 1097 
Q 381 1229 381 1457 
Q 381 1732 603 1882 
Q 822 2035 1228 2035 
Q 1428 2035 1606 2007 
Q 1784 1982 1931 1929 
z
" transform="scale(0.015625)"/>
     </defs>
     <use xlink:href="#DejaVuSans-58"/>
     <use xlink:href="#DejaVuSans-209b" transform="translate(68.505859 0)"/>
    </g>
   </g>
   <g id="patch_9">
    <path d="M 93.709232 170.667764 
Q 155.249105 189.484126 215.719805 207.973579 
" style="fill: none; stroke: #111111; stroke-linecap: round"/>
    <path d="M 212.479409 204.891399 
L 215.719805 207.973579 
L 211.309823 208.716588 
" style="fill: none; stroke: #111111; stroke-linecap: round"/>
   </g>
   <g id="patch_10">
    <path d="M 190.302665 171.673071 
Q 203.893834 189.482872 216.806737 206.403877 
" style="fill: none; stroke: #111111; stroke-linecap: round"/>
    <path d="M 215.970027 202.01071 
L 216.806737 206.403877 
L 212.790177 204.437344 
" style="fill: none; stroke: #111111; stroke-linecap: round"/>
   </g>
   <g id="patch_11">
    <path d="M 238.893448 171.838846 
Q 229.275554 189.483383 220.192759 206.146254 
" style="fill: none; stroke: #111111; stroke-linecap: round"/>
    <path d="M 223.863245 203.59135 
L 220.192759 206.146254 
L 220.351127 201.676923 
" style="fill: none; stroke: #111111; stroke-linecap: round"/>
   </g>
   <g id="text_5">
    <!-- 1D-CNN -->
    <g transform="translate(196.863281 231.044575) scale(0.1 -0.1)">
     <defs>
      <path id="DejaVuSans-Bold-31" d="M 750 831 
L 1813 831 
L 1813 3847 
L 722 3622 
L 722 4441 
L 1806 4666 
L 2950 4666 
L 2950 831 
L 4013 831 
L 4013 0 
L 750 0 
L 750 831 
z
" transform="scale(0.015625)"/>
      <path id="DejaVuSans-Bold-44" d="M 1791 3756 
L 1791 909 
L 2222 909 
Q 2959 909 3348 1275 
Q 3738 1641 3738 2338 
Q 3738 3031 3350 3393 
Q 2963 3756 2222 3756 
L 1791 3756 
z
M 588 4666 
L 1856 4666 
Q 2919 4666 3439 4514 
Q 3959 4363 4331 4000 
Q 4659 3684 4818 3271 
Q 4978 2859 4978 2338 
Q 4978 1809 4818 1395 
Q 4659 981 4331 666 
Q 3956 303 3431 151 
Q 2906 0 1856 0 
L 588 0 
L 588 4666 
z
" transform="scale(0.015625)"/>
      <path id="DejaVuSans-Bold-2d" d="M 347 2297 
L 2309 2297 
L 2309 1388 
L 347 1388 
L 347 2297 
z
" transform="scale(0.015625)"/>
      <path id="DejaVuSans-Bold-43" d="M 4288 256 
Q 3956 84 3597 -3 
Q 3238 -91 2847 -91 
Q 1681 -91 1000 561 
Q 319 1213 319 2328 
Q 319 3447 1000 4098 
Q 1681 4750 2847 4750 
Q 3238 4750 3597 4662 
Q 3956 4575 4288 4403 
L 4288 3438 
Q 3953 3666 3628 3772 
Q 3303 3878 2944 3878 
Q 2300 3878 1931 3465 
Q 1563 3053 1563 2328 
Q 1563 1606 1931 1193 
Q 2300 781 2944 781 
Q 3303 781 3628 887 
Q 3953 994 4288 1222 
L 4288 256 
z
" transform="scale(0.015625)"/>
      <path id="DejaVuSans-Bold-4e" d="M 588 4666 
L 1931 4666 
L 3628 1466 
L 3628 4666 
L 4769 4666 
L 4769 0 
L 3425 0 
L 1728 3200 
L 1728 0 
L 588 0 
L 588 4666 
z
" transform="scale(0.015625)"/>
     </defs>
     <use xlink:href="#DejaVuSans-Bold-31"/>
     <use xlink:href="#DejaVuSans-Bold-44" transform="translate(69.580078 0)"/>
     <use xlink:href="#DejaVuSans-Bold-2d" transform="translate(154.462891 0)"/>
     <use xlink:href="#DejaVuSans-Bold-43" transform="translate(195.966797 0)"/>
     <use xlink:href="#DejaVuSans-Bold-4e" transform="translate(269.355469 0)"/>
     <use xlink:href="#DejaVuSans-Bold-4e" transform="translate(353.046875 0)"/>
    </g>
   </g>
   <g id="patch_12">
    <path d="M 218.7 249.684372 
Q 218.7 260.617755 218.7 270.433105 
" style="fill: none; stroke: #111111; stroke-linecap: round"/>
    <path d="M 220.7 266.433105 
L 218.7 270.433105 
L 216.7 266.433105 
" style="fill: none; stroke: #111111; stroke-linecap: round"/>
   </g>
   <g id="text_6">
    <!-- Aggregation → Decision -->
    <g transform="translate(165.367266 292.418797) scale(0.09 -0.09)">
     <defs>
      <path id="DejaVuSans-41" d="M 2188 4044 
L 1331 1722 
L 3047 1722 
L 2188 4044 
z
M 1831 4666 
L 2547 4666 
L 4325 0 
L 3669 0 
L 3244 1197 
L 1141 1197 
L 716 0 
L 50 0 
L 1831 4666 
z
" transform="scale(0.015625)"/>
      <path id="DejaVuSans-67" d="M 2906 1791 
Q 2906 2416 2648 2759 
Q 2391 3103 1925 3103 
Q 1463 3103 1205 2759 
Q 947 2416 947 1791 
Q 947 1169 1205 825 
Q 1463 481 1925 481 
Q 2391 481 2648 825 
Q 2906 1169 2906 1791 
z
M 3481 434 
Q 3481 -459 3084 -895 
Q 2688 -1331 1869 -1331 
Q 1566 -1331 1297 -1286 
Q 1028 -1241 775 -1147 
L 775 -588 
Q 1028 -725 1275 -790 
Q 1522 -856 1778 -856 
Q 2344 -856 2625 -561 
Q 2906 -266 2906 331 
L 2906 616 
Q 2728 306 2450 153 
Q 2172 0 1784 0 
Q 1141 0 747 490 
Q 353 981 353 1791 
Q 353 2603 747 3093 
Q 1141 3584 1784 3584 
Q 2172 3584 2450 3431 
Q 2728 3278 2906 2969 
L 2906 3500 
L 3481 3500 
L 3481 434 
z
" transform="scale(0.015625)"/>
      <path id="DejaVuSans-72" d="M 2631 2963 
Q 2534 3019 2420 3045 
Q 2306 3072 2169 3072 
Q 1681 3072 1420 2755 
Q 1159 2438 1159 1844 
L 1159 0 
L 581 0 
L 581 3500 
L 1159 3500 
L 1159 2956 
Q 1341 3275 1631 3429 
Q 1922 3584 2338 3584 
Q 2397 3584 2469 3576 
Q 2541 3569 2628 3553 
L 2631 2963 
z
" transform="scale(0.015625)"/>
      <path id="DejaVuSans-65" d="M 3597 1894 
L 3597 1613 
L 953 1613 
Q 991 1019 1311 708 
Q 1631 397 2203 397 
Q 2534 397 2845 478 
Q 3156 559 3463 722 
L 3463 178 
Q 3153 47 2828 -22 
Q 2503 -91 2169 -91 
Q 1331 -91 842 396 
Q 353 884 353 1716 
Q 353 2575 817 3079 
Q 1281 3584 2069 3584 
Q 2775 3584 3186 3129 
Q 3597 2675 3597 1894 
z
M 3022 2063 
Q 3016 2534 2758 2815 
Q 2500 3097 2075 3097 
Q 1594 3097 1305 2825 
Q 1016 2553 972 2059 
L 3022 2063 
z
" transform="scale(0.015625)"/>
      <path id="DejaVuSans-61" d="M 2194 1759 
Q 1497 1759 1228 1600 
Q 959 1441 959 1056 
Q 959 750 1161 570 
Q 1363 391 1709 391 
Q 2188 391 2477 730 
Q 2766 1069 2766 1631 
L 2766 1759 
L 2194 1759 
z
M 3341 1997 
L 3341 0 
L 2766 0 
L 2766 531 
Q 2569 213 2275 61 
Q 1981 -91 1556 -91 
Q 1019 -91 701 211 
Q 384 513 384 1019 
Q 384 1609 779 1909 
Q 1175 2209 1959 2209 
L 2766 2209 
L 2766 2266 
Q 2766 2663 2505 2880 
Q 2244 3097 1772 3097 
Q 1472 3097 1187 3025 
Q 903 2953 641 2809 
L 641 3341 
Q 956 3463 1253 3523 
Q 1550 3584 1831 3584 
Q 2591 3584 2966 3190 
Q 3341 2797 3341 1997 
z
" transform="scale(0.015625)"/>
      <path id="DejaVuSans-74" d="M 1172 4494 
L 1172 3500 
L 2356 3500 
L 2356 3053 
L 1172 3053 
L 1172 1153 
Q 1172 725 1289 603 
Q 1406 481 1766 481 
L 2356 481 
L 2356 0 
L 1766 0 
Q 1100 0 847 248 
Q 594 497 594 1153 
L 594 3053 
L 172 3053 
L 172 3500 
L 594 3500 
L 594 4494 
L 1172 4494 
z
" transform="scale(0.015625)"/>
      <path id="DejaVuSans-69" d="M 603 3500 
L 1178 3500 
L 1178 0 
L 603 0 
L 603 3500 
z
M 603 4863 
L 1178 4863 
L 1178 4134 
L 603 4134 
L 603 4863 
z
" transform="scale(0.015625)"/>
      <path id="DejaVuSans-6f" d="M 1959 3097 
Q 1497 3097 1228 2736 
Q 959 2375 959 1747 
Q 959 1119 1226 758 
Q 1494 397 1959 397 
Q 2419 397 2687 759 
Q 2956 1122 2956 1747 
Q 2956 2369 2687 2733 
Q 2419 3097 1959 3097 
z
M 1959 3584 
Q 2709 3584 3137 3096 
Q 3566 2609 3566 1747 
Q 3566 888 3137 398 
Q 2709 -91 1959 -91 
Q 1206 -91 779 398 
Q 353 888 353 1747 
Q 353 2609 779 3096 
Q 1206 3584 1959 3584 
z
" transform="scale(0.015625)"/>
      <path id="DejaVuSans-6e" d="M 3513 2113 
L 3513 0 
L 2938 0 
L 2938 2094 
Q 2938 2591 2744 2837 
Q 2550 3084 2163 3084 
Q 1697 3084 1428 2787 
Q 1159 2491 1159 1978 
L 1159 0 
L 581 0 
L 581 3500 
L 1159 3500 
L 1159 2956 
Q 1366 3272 1645 3428 
Q 1925 3584 2291 3584 
Q 2894 3584 3203 3211 
Q 3513 2838 3513 2113 
z
" transform="scale(0.015625)"/>
      <path id="DejaVuSans-20" transform="scale(0.015625)"/>
      <path id="DejaVuSans-2192" d="M 5050 2147 
L 5050 1866 
L 3822 638 
L 3447 1013 
L 4175 1741 
L 366 1741 
L 366 2272 
L 4175 2272 
L 3447 3000 
L 3822 3375 
L 5050 2147 
z
" transform="scale(0.015625)"/>
      <path id="DejaVuSans-44" d="M 1259 4147 
L 1259 519 
L 2022 519 
Q 2988 519 3436 956 
Q 3884 1394 3884 2338 
Q 3884 3275 3436 3711 
Q 2988 4147 2022 4147 
L 1259 4147 
z
M 628 4666 
L 1925 4666 
Q 3281 4666 3915 4102 
Q 4550 3538 4550 2338 
Q 4550 1131 3912 565 
Q 3275 0 1925 0 
L 628 0 
L 628 4666 
z
" transform="scale(0.015625)"/>
      <path id="DejaVuSans-63" d="M 3122 3366 
L 3122 2828 
Q 2878 2963 2633 3030 
Q 2388 3097 2138 3097 
Q 1578 3097 1268 2742 
Q 959 2388 959 1747 
Q 959 1106 1268 751 
Q 1578 397 2138 397 
Q 2388 397 2633 464 
Q 2878 531 3122 666 
L 3122 134 
Q 2881 22 2623 -34 
Q 2366 -91 2075 -91 
Q 1284 -91 818 406 
Q 353 903 353 1747 
Q 353 2603 823 3093 
Q 1294 3584 2113 3584 
Q 2378 3584 2631 3529 
Q 2884 3475 3122 3366 
z
" transform="scale(0.015625)"/>
      <path id="DejaVuSans-73" d="M 2834 3397 
L 2834 2853 
Q 2591 2978 2328 3040 
Q 2066 3103 1784 3103 
Q 1356 3103 1142 2972 
Q 928 2841 928 2578 
Q 928 2378 1081 2264 
Q 1234 2150 1697 2047 
L 1894 2003 
Q 2506 1872 2764 1633 
Q 3022 1394 3022 966 
Q 3022 478 2636 193 
Q 2250 -91 1575 -91 
Q 1294 -91 989 -36 
Q 684 19 347 128 
L 347 722 
Q 666 556 975 473 
Q 1284 391 1588 391 
Q 1994 391 2212 530 
Q 2431 669 2431 922 
Q 2431 1156 2273 1281 
Q 2116 1406 1581 1522 
L 1381 1569 
Q 847 1681 609 1914 
Q 372 2147 372 2553 
Q 372 3047 722 3315 
Q 1072 3584 1716 3584 
Q 2034 3584 2315 3537 
Q 2597 3491 2834 3397 
z
" transform="scale(0.015625)"/>
     </defs>
     <use xlink:href="#DejaVuSans-41"/>
     <use xlink:href="#DejaVuSans-67" transform="translate(68.408203 0)"/>
     <use xlink:href="#DejaVuSans-67" transform="translate(131.884766 0)"/>
     <use xlink:href="#DejaVuSans-72" transform="translate(195.361328 0)"/>
     <use xlink:href="#DejaVuSans-65" transform="translate(234.224609 0)"/>
     <use xlink:href="#DejaVuSans-67" transform="translate(295.748047 0)"/>
     <use xlink:href="#DejaVuSans-61" transform="translate(359.224609 0)"/>
     <use xlink:href="#DejaVuSans-74" transform="translate(420.503906 0)"/>
     <use xlink:href="#DejaVuSans-69" transform="translate(459.712891 0)"/>
     <use xlink:href="#DejaVuSans-6f" transform="translate(487.496094 0)"/>
     <use xlink:href="#DejaVuSans-6e" transform="translate(548.677734 0)"/>
     <use xlink:href="#DejaVuSans-20" transform="translate(612.056641 0)"/>
     <use xlink:href="#DejaVuSans-2192" transform="translate(643.84375 0)"/>
     <use xlink:href="#DejaVuSans-20" transform="translate(727.632812 0)"/>
     <use xlink:href="#DejaVuSans-44" transform="translate(759.419922 0)"/>
     <use xlink:href="#DejaVuSans-65" transform="translate(836.421875 0)"/>
     <use xlink:href="#DejaVuSans-63" transform="translate(897.945312 0)"/>
     <use xlink:href="#DejaVuSans-69" transform="translate(952.925781 0)"/>
     <use xlink:href="#DejaVuSans-73" transform="translate(980.708984 0)"/>
     <use xlink:href="#DejaVuSans-69" transform="translate(1032.808594 0)"/>
     <use xlink:href="#DejaVuSans-6f" transform="translate(1060.591797 0)"/>
     <use xlink:href="#DejaVuSans-6e" transform="translate(1121.773438 0)"/>
    </g>
   </g>
   <g id="text_7">
    <!-- Many short frames · SUM/vote · high MAC/clip -->
    <g style="fill: #6b7280" transform="translate(127.18 83.86) scale(0.08 -0.08)">
     <defs>
      <path id="DejaVuSans-4d" d="M 628 4666 
L 1569 4666 
L 2759 1491 
L 3956 4666 
L 4897 4666 
L 4897 0 
L 4281 0 
L 4281 4097 
L 3078 897 
L 2444 897 
L 1241 4097 
L 1241 0 
L 628 0 
L 628 4666 
z
" transform="scale(0.015625)"/>
      <path id="DejaVuSans-79" d="M 2059 -325 
Q 1816 -950 1584 -1140 
Q 1353 -1331 966 -1331 
L 506 -1331 
L 506 -850 
L 844 -850 
Q 1081 -850 1212 -737 
Q 1344 -625 1503 -206 
L 1606 56 
L 191 3500 
L 800 3500 
L 1894 763 
L 2988 3500 
L 3597 3500 
L 2059 -325 
z
" transform="scale(0.015625)"/>
      <path id="DejaVuSans-68" d="M 3513 2113 
L 3513 0 
L 2938 0 
L 2938 2094 
Q 2938 2591 2744 2837 
Q 2550 3084 2163 3084 
Q 1697 3084 1428 2787 
Q 1159 2491 1159 1978 
L 1159 0 
L 581 0 
L 581 4863 
L 1159 4863 
L 1159 2956 
Q 1366 3272 1645 3428 
Q 1925 3584 2291 3584 
Q 2894 3584 3203 3211 
Q 3513 2838 3513 2113 
z
" transform="scale(0.015625)"/>
      <path id="DejaVuSans-66" d="M 2375 4863 
L 2375 4384 
L 1825 4384 
Q 1516 4384 1395 4259 
Q 1275 4134 1275 3809 
L 1275 3500 
L 2222 3500 
L 2222 3053 
L 1275 3053 
L 1275 0 
L 697 0 
L 697 3053 
L 147 3053 
L 147 3500 
L 697 3500 
L 697 3744 
Q 697 4328 969 4595 
Q 1241 4863 1831 4863 
L 2375 4863 
z
" transform="scale(0.015625)"/>
      <path id="DejaVuSans-6d" d="M 3328 2828 
Q 3544 3216 3844 3400 
Q 4144 3584 4550 3584 
Q 5097 3584 5394 3201 
Q 5691 2819 5691 2113 
L 5691 0 
L 5113 0 
L 5113 2094 
Q 5113 2597 4934 2840 
Q 4756 3084 4391 3084 
Q 3944 3084 3684 2787 
Q 3425 2491 3425 1978 
L 3425 0 
L 2847 0 
L 2847 2094 
Q 2847 2600 2669 2842 
Q 2491 3084 2119 3084 
Q 1678 3084 1418 2786 
Q 1159 2488 1159 1978 
L 1159 0 
L 581 0 
L 581 3500 
L 1159 3500 
L 1159 2956 
Q 1356 3278 1631 3431 
Q 1906 3584 2284 3584 
Q 2666 3584 2933 3390 
Q 3200 3197 3328 2828 
z
" transform="scale(0.015625)"/>
      <path id="DejaVuSans-b7" d="M 684 2619 
L 1344 2619 
L 1344 1825 
L 684 1825 
L 684 2619 
z
" transform="scale(0.015625)"/>
      <path id="DejaVuSans-53" d="M 3425 4513 
L 3425 3897 
Q 3066 4069 2747 4153 
Q 2428 4238 2131 4238 
Q 1616 4238 1336 4038 
Q 1056 3838 1056 3469 
Q 1056 3159 1242 3001 
Q 1428 2844 1947 2747 
L 2328 2669 
Q 3034 2534 3370 2195 
Q 3706 1856 3706 1288 
Q 3706 609 3251 259 
Q 2797 -91 1919 -91 
Q 1588 -91 1214 -16 
Q 841 59 441 206 
L 441 856 
Q 825 641 1194 531 
Q 1563 422 1919 422 
Q 2459 422 2753 634 
Q 3047 847 3047 1241 
Q 3047 1584 2836 1778 
Q 2625 1972 2144 2069 
L 1759 2144 
Q 1053 2284 737 2584 
Q 422 2884 422 3419 
Q 422 4038 858 4394 
Q 1294 4750 2059 4750 
Q 2388 4750 2728 4690 
Q 3069 4631 3425 4513 
z
" transform="scale(0.015625)"/>
      <path id="DejaVuSans-55" d="M 556 4666 
L 1191 4666 
L 1191 1831 
Q 1191 1081 1462 751 
Q 1734 422 2344 422 
Q 2950 422 3222 751 
Q 3494 1081 3494 1831 
L 3494 4666 
L 4128 4666 
L 4128 1753 
Q 4128 841 3676 375 
Q 3225 -91 2344 -91 
Q 1459 -91 1007 375 
Q 556 841 556 1753 
L 556 4666 
z
" transform="scale(0.015625)"/>
      <path id="DejaVuSans-2f" d="M 1625 4666 
L 2156 4666 
L 531 -594 
L 0 -594 
L 1625 4666 
z
" transform="scale(0.015625)"/>
      <path id="DejaVuSans-76" d="M 191 3500 
L 800 3500 
L 1894 563 
L 2988 3500 
L 3597 3500 
L 2284 0 
L 1503 0 
L 191 3500 
z
" transform="scale(0.015625)"/>
      <path id="DejaVuSans-43" d="M 4122 4306 
L 4122 3641 
Q 3803 3938 3442 4084 
Q 3081 4231 2675 4231 
Q 1875 4231 1450 3742 
Q 1025 3253 1025 2328 
Q 1025 1406 1450 917 
Q 1875 428 2675 428 
Q 3081 428 3442 575 
Q 3803 722 4122 1019 
L 4122 359 
Q 3791 134 3420 21 
Q 3050 -91 2638 -91 
Q 1578 -91 968 557 
Q 359 1206 359 2328 
Q 359 3453 968 4101 
Q 1578 4750 2638 4750 
Q 3056 4750 3426 4639 
Q 3797 4528 4122 4306 
z
" transform="scale(0.015625)"/>
      <path id="DejaVuSans-6c" d="M 603 4863 
L 1178 4863 
L 1178 0 
L 603 0 
L 603 4863 
z
" transform="scale(0.015625)"/>
      <path id="DejaVuSans-70" d="M 1159 525 
L 1159 -1331 
L 581 -1331 
L 581 3500 
L 1159 3500 
L 1159 2969 
Q 1341 3281 1617 3432 
Q 1894 3584 2278 3584 
Q 2916 3584 3314 3078 
Q 3713 2572 3713 1747 
Q 3713 922 3314 415 
Q 2916 -91 2278 -91 
Q 1894 -91 1617 61 
Q 1341 213 1159 525 
z
M 3116 1747 
Q 3116 2381 2855 2742 
Q 2594 3103 2138 3103 
Q 1681 3103 1420 2742 
Q 1159 2381 1159 1747 
Q 1159 1113 1420 752 
Q 1681 391 2138 391 
Q 2594 391 2855 752 
Q 3116 1113 3116 1747 
z
" transform="scale(0.015625)"/>
     </defs>
     <use xlink:href="#DejaVuSans-4d"/>
     <use xlink:href="#DejaVuSans-61" transform="translate(86.279297 0)"/>
     <use xlink:href="#DejaVuSans-6e" transform="translate(147.558594 0)"/>
     <use xlink:href="#DejaVuSans-79" transform="translate(210.9375 0)"/>
     <use xlink:href="#DejaVuSans-20" transform="translate(270.117188 0)"/>
     <use xlink:href="#DejaVuSans-73" transform="translate(301.904297 0)"/>
     <use xlink:href="#DejaVuSans-68" transform="translate(354.003906 0)"/>
     <use xlink:href="#DejaVuSans-6f" transform="translate(417.382812 0)"/>
     <use xlink:href="#DejaVuSans-72" transform="translate(478.564453 0)"/>
     <use xlink:href="#DejaVuSans-74" transform="translate(519.677734 0)"/>
     <use xlink:href="#DejaVuSans-20" transform="translate(558.886719 0)"/>
     <use xlink:href="#DejaVuSans-66" transform="translate(590.673828 0)"/>
     <use xlink:href="#DejaVuSans-72" transform="translate(625.878906 0)"/>
     <use xlink:href="#DejaVuSans-61" transform="translate(666.992188 0)"/>
     <use xlink:href="#DejaVuSans-6d" transform="translate(728.271484 0)"/>
     <use xlink:href="#DejaVuSans-65" transform="translate(825.683594 0)"/>
     <use xlink:href="#DejaVuSans-73" transform="translate(887.207031 0)"/>
     <use xlink:href="#DejaVuSans-20" transform="translate(939.306641 0)"/>
     <use xlink:href="#DejaVuSans-b7" transform="translate(971.09375 0)"/>
     <use xlink:href="#DejaVuSans-20" transform="translate(1002.880859 0)"/>
     <use xlink:href="#DejaVuSans-53" transform="translate(1034.667969 0)"/>
     <use xlink:href="#DejaVuSans-55" transform="translate(1098.144531 0)"/>
     <use xlink:href="#DejaVuSans-4d" transform="translate(1171.337891 0)"/>
     <use xlink:href="#DejaVuSans-2f" transform="translate(1257.617188 0)"/>
     <use xlink:href="#DejaVuSans-76" transform="translate(1291.308594 0)"/>
     <use xlink:href="#DejaVuSans-6f" transform="translate(1350.488281 0)"/>
     <use xlink:href="#DejaVuSans-74" transform="translate(1411.669922 0)"/>
     <use xlink:href="#DejaVuSans-65" transform="translate(1450.878906 0)"/>
     <use xlink:href="#DejaVuSans-20" transform="translate(1512.402344 0)"/>
     <use xlink:href="#DejaVuSans-b7" transform="translate(1544.189453 0)"/>
     <use xlink:href="#DejaVuSans-20" transform="translate(1575.976562 0)"/>
     <use xlink:href="#DejaVuSans-68" transform="translate(1607.763672 0)"/>
     <use xlink:href="#DejaVuSans-69" transform="translate(1671.142578 0)"/>
     <use xlink:href="#DejaVuSans-67" transform="translate(1698.925781 0)"/>
     <use xlink:href="#DejaVuSans-68" transform="translate(1762.402344 0)"/>
     <use xlink:href="#DejaVuSans-20" transform="translate(1825.78125 0)"/>
     <use xlink:href="#DejaVuSans-4d" transform="translate(1857.568359 0)"/>
     <use xlink:href="#DejaVuSans-41" transform="translate(1943.847656 0)"/>
     <use xlink:href="#DejaVuSans-43" transform="translate(2010.505859 0)"/>
     <use xlink:href="#DejaVuSans-2f" transform="translate(2080.330078 0)"/>
     <use xlink:href="#DejaVuSans-63" transform="translate(2114.021484 0)"/>
     <use xlink:href="#DejaVuSans-6c" transform="translate(2169.001953 0)"/>
     <use xlink:href="#DejaVuSans-69" transform="translate(2196.785156 0)"/>
     <use xlink:href="#DejaVuSans-70" transform="translate(2224.568359 0)"/>
    </g>
   </g>
   <g id="text_8">
    <!-- Literature multi-frame aggregation -->
    <g transform="translate(109.219062 43.900469) scale(0.11 -0.11)">
     <defs>
      <path id="DejaVuSans-Bold-4c" d="M 588 4666 
L 1791 4666 
L 1791 909 
L 3903 909 
L 3903 0 
L 588 0 
L 588 4666 
z
" transform="scale(0.015625)"/>
      <path id="DejaVuSans-Bold-69" d="M 538 3500 
L 1656 3500 
L 1656 0 
L 538 0 
L 538 3500 
z
M 538 4863 
L 1656 4863 
L 1656 3950 
L 538 3950 
L 538 4863 
z
" transform="scale(0.015625)"/>
      <path id="DejaVuSans-Bold-74" d="M 1759 4494 
L 1759 3500 
L 2913 3500 
L 2913 2700 
L 1759 2700 
L 1759 1216 
Q 1759 972 1856 886 
Q 1953 800 2241 800 
L 2816 800 
L 2816 0 
L 1856 0 
Q 1194 0 917 276 
Q 641 553 641 1216 
L 641 2700 
L 84 2700 
L 84 3500 
L 641 3500 
L 641 4494 
L 1759 4494 
z
" transform="scale(0.015625)"/>
      <path id="DejaVuSans-Bold-65" d="M 4031 1759 
L 4031 1441 
L 1416 1441 
Q 1456 1047 1700 850 
Q 1944 653 2381 653 
Q 2734 653 3104 758 
Q 3475 863 3866 1075 
L 3866 213 
Q 3469 63 3072 -14 
Q 2675 -91 2278 -91 
Q 1328 -91 801 392 
Q 275 875 275 1747 
Q 275 2603 792 3093 
Q 1309 3584 2216 3584 
Q 3041 3584 3536 3087 
Q 4031 2591 4031 1759 
z
M 2881 2131 
Q 2881 2450 2695 2645 
Q 2509 2841 2209 2841 
Q 1884 2841 1681 2658 
Q 1478 2475 1428 2131 
L 2881 2131 
z
" transform="scale(0.015625)"/>
      <path id="DejaVuSans-Bold-72" d="M 3138 2547 
Q 2991 2616 2845 2648 
Q 2700 2681 2553 2681 
Q 2122 2681 1889 2404 
Q 1656 2128 1656 1613 
L 1656 0 
L 538 0 
L 538 3500 
L 1656 3500 
L 1656 2925 
Q 1872 3269 2151 3426 
Q 2431 3584 2822 3584 
Q 2878 3584 2943 3579 
Q 3009 3575 3134 3559 
L 3138 2547 
z
" transform="scale(0.015625)"/>
      <path id="DejaVuSans-Bold-61" d="M 2106 1575 
Q 1756 1575 1579 1456 
Q 1403 1338 1403 1106 
Q 1403 894 1545 773 
Q 1688 653 1941 653 
Q 2256 653 2472 879 
Q 2688 1106 2688 1447 
L 2688 1575 
L 2106 1575 
z
M 3816 1997 
L 3816 0 
L 2688 0 
L 2688 519 
Q 2463 200 2181 54 
Q 1900 -91 1497 -91 
Q 953 -91 614 226 
Q 275 544 275 1050 
Q 275 1666 698 1953 
Q 1122 2241 2028 2241 
L 2688 2241 
L 2688 2328 
Q 2688 2594 2478 2717 
Q 2269 2841 1825 2841 
Q 1466 2841 1156 2769 
Q 847 2697 581 2553 
L 581 3406 
Q 941 3494 1303 3539 
Q 1666 3584 2028 3584 
Q 2975 3584 3395 3211 
Q 3816 2838 3816 1997 
z
" transform="scale(0.015625)"/>
      <path id="DejaVuSans-Bold-75" d="M 500 1363 
L 500 3500 
L 1625 3500 
L 1625 3150 
Q 1625 2866 1622 2436 
Q 1619 2006 1619 1863 
Q 1619 1441 1641 1255 
Q 1663 1069 1716 984 
Q 1784 875 1895 815 
Q 2006 756 2150 756 
Q 2500 756 2700 1025 
Q 2900 1294 2900 1772 
L 2900 3500 
L 4019 3500 
L 4019 0 
L 2900 0 
L 2900 506 
Q 2647 200 2364 54 
Q 2081 -91 1741 -91 
Q 1134 -91 817 281 
Q 500 653 500 1363 
z
" transform="scale(0.015625)"/>
      <path id="DejaVuSans-Bold-20" transform="scale(0.015625)"/>
      <path id="DejaVuSans-Bold-6d" d="M 3781 2919 
Q 3994 3244 4286 3414 
Q 4578 3584 4928 3584 
Q 5531 3584 5847 3212 
Q 6163 2841 6163 2131 
L 6163 0 
L 5038 0 
L 5038 1825 
Q 5041 1866 5042 1909 
Q 5044 1953 5044 2034 
Q 5044 2406 4934 2573 
Q 4825 2741 4581 2741 
Q 4263 2741 4089 2478 
Q 3916 2216 3909 1719 
L 3909 0 
L 2784 0 
L 2784 1825 
Q 2784 2406 2684 2573 
Q 2584 2741 2328 2741 
Q 2006 2741 1831 2477 
Q 1656 2213 1656 1722 
L 1656 0 
L 531 0 
L 531 3500 
L 1656 3500 
L 1656 2988 
Q 1863 3284 2130 3434 
Q 2397 3584 2719 3584 
Q 3081 3584 3359 3409 
Q 3638 3234 3781 2919 
z
" transform="scale(0.015625)"/>
      <path id="DejaVuSans-Bold-6c" d="M 538 4863 
L 1656 4863 
L 1656 0 
L 538 0 
L 538 4863 
z
" transform="scale(0.015625)"/>
      <path id="DejaVuSans-Bold-66" d="M 2841 4863 
L 2841 4128 
L 2222 4128 
Q 1984 4128 1890 4042 
Q 1797 3956 1797 3744 
L 1797 3500 
L 2753 3500 
L 2753 2700 
L 1797 2700 
L 1797 0 
L 678 0 
L 678 2700 
L 122 2700 
L 122 3500 
L 678 3500 
L 678 3744 
Q 678 4316 997 4589 
Q 1316 4863 1984 4863 
L 2841 4863 
z
" transform="scale(0.015625)"/>
      <path id="DejaVuSans-Bold-67" d="M 2919 594 
Q 2688 288 2409 144 
Q 2131 0 1766 0 
Q 1125 0 706 504 
Q 288 1009 288 1791 
Q 288 2575 706 3076 
Q 1125 3578 1766 3578 
Q 2131 3578 2409 3434 
Q 2688 3291 2919 2981 
L 2919 3500 
L 4044 3500 
L 4044 353 
Q 4044 -491 3511 -936 
Q 2978 -1381 1966 -1381 
Q 1638 -1381 1331 -1331 
Q 1025 -1281 716 -1178 
L 716 -306 
Q 1009 -475 1290 -558 
Q 1572 -641 1856 -641 
Q 2406 -641 2662 -400 
Q 2919 -159 2919 353 
L 2919 594 
z
M 2181 2772 
Q 1834 2772 1640 2515 
Q 1447 2259 1447 1791 
Q 1447 1309 1634 1061 
Q 1822 813 2181 813 
Q 2531 813 2725 1069 
Q 2919 1325 2919 1791 
Q 2919 2259 2725 2515 
Q 2531 2772 2181 2772 
z
" transform="scale(0.015625)"/>
      <path id="DejaVuSans-Bold-6f" d="M 2203 2784 
Q 1831 2784 1636 2517 
Q 1441 2250 1441 1747 
Q 1441 1244 1636 976 
Q 1831 709 2203 709 
Q 2569 709 2762 976 
Q 2956 1244 2956 1747 
Q 2956 2250 2762 2517 
Q 2569 2784 2203 2784 
z
M 2203 3584 
Q 3106 3584 3614 3096 
Q 4122 2609 4122 1747 
Q 4122 884 3614 396 
Q 3106 -91 2203 -91 
Q 1297 -91 786 396 
Q 275 884 275 1747 
Q 275 2609 786 3096 
Q 1297 3584 2203 3584 
z
" transform="scale(0.015625)"/>
      <path id="DejaVuSans-Bold-6e" d="M 4056 2131 
L 4056 0 
L 2931 0 
L 2931 347 
L 2931 1631 
Q 2931 2084 2911 2256 
Q 2891 2428 2841 2509 
Q 2775 2619 2662 2680 
Q 2550 2741 2406 2741 
Q 2056 2741 1856 2470 
Q 1656 2200 1656 1722 
L 1656 0 
L 538 0 
L 538 3500 
L 1656 3500 
L 1656 2988 
Q 1909 3294 2193 3439 
Q 2478 3584 2822 3584 
Q 3428 3584 3742 3212 
Q 4056 2841 4056 2131 
z
" transform="scale(0.015625)"/>
     </defs>
     <use xlink:href="#DejaVuSans-Bold-4c"/>
     <use xlink:href="#DejaVuSans-Bold-69" transform="translate(63.720703 0)"/>
     <use xlink:href="#DejaVuSans-Bold-74" transform="translate(97.998047 0)"/>
     <use xlink:href="#DejaVuSans-Bold-65" transform="translate(145.800781 0)"/>
     <use xlink:href="#DejaVuSans-Bold-72" transform="translate(213.623047 0)"/>
     <use xlink:href="#DejaVuSans-Bold-61" transform="translate(262.939453 0)"/>
     <use xlink:href="#DejaVuSans-Bold-74" transform="translate(330.419922 0)"/>
     <use xlink:href="#DejaVuSans-Bold-75" transform="translate(378.222656 0)"/>
     <use xlink:href="#DejaVuSans-Bold-72" transform="translate(449.414062 0)"/>
     <use xlink:href="#DejaVuSans-Bold-65" transform="translate(498.730469 0)"/>
     <use xlink:href="#DejaVuSans-Bold-20" transform="translate(566.552734 0)"/>
     <use xlink:href="#DejaVuSans-Bold-6d" transform="translate(601.367188 0)"/>
     <use xlink:href="#DejaVuSans-Bold-75" transform="translate(705.566406 0)"/>
     <use xlink:href="#DejaVuSans-Bold-6c" transform="translate(776.757812 0)"/>
     <use xlink:href="#DejaVuSans-Bold-74" transform="translate(811.035156 0)"/>
     <use xlink:href="#DejaVuSans-Bold-69" transform="translate(858.837891 0)"/>
     <use xlink:href="#DejaVuSans-Bold-2d" transform="translate(893.115234 0)"/>
     <use xlink:href="#DejaVuSans-Bold-66" transform="translate(934.619141 0)"/>
     <use xlink:href="#DejaVuSans-Bold-72" transform="translate(978.125 0)"/>
     <use xlink:href="#DejaVuSans-Bold-61" transform="translate(1027.441406 0)"/>
     <use xlink:href="#DejaVuSans-Bold-6d" transform="translate(1094.921875 0)"/>
     <use xlink:href="#DejaVuSans-Bold-65" transform="translate(1199.121094 0)"/>
     <use xlink:href="#DejaVuSans-Bold-20" transform="translate(1266.943359 0)"/>
     <use xlink:href="#DejaVuSans-Bold-61" transform="translate(1301.757812 0)"/>
     <use xlink:href="#DejaVuSans-Bold-67" transform="translate(1369.238281 0)"/>
     <use xlink:href="#DejaVuSans-Bold-67" transform="translate(1440.820312 0)"/>
     <use xlink:href="#DejaVuSans-Bold-72" transform="translate(1512.402344 0)"/>
     <use xlink:href="#DejaVuSans-Bold-65" transform="translate(1561.71875 0)"/>
     <use xlink:href="#DejaVuSans-Bold-67" transform="translate(1629.541016 0)"/>
     <use xlink:href="#DejaVuSans-Bold-61" transform="translate(1701.123047 0)"/>
     <use xlink:href="#DejaVuSans-Bold-74" transform="translate(1768.603516 0)"/>
     <use xlink:href="#DejaVuSans-Bold-69" transform="translate(1816.40625 0)"/>
     <use xlink:href="#DejaVuSans-Bold-6f" transform="translate(1850.683594 0)"/>
     <use xlink:href="#DejaVuSans-Bold-6e" transform="translate(1919.384766 0)"/>
    </g>
    <!-- (Abdoli Fig. 4 style) -->
    <g transform="translate(157.65 56.304) scale(0.11 -0.11)">
     <defs>
      <path id="DejaVuSans-Bold-28" d="M 2413 -844 
L 1484 -844 
Q 1006 -72 778 623 
Q 550 1319 550 2003 
Q 550 2688 779 3389 
Q 1009 4091 1484 4856 
L 2413 4856 
Q 2013 4116 1813 3408 
Q 1613 2700 1613 2009 
Q 1613 1319 1811 609 
Q 2009 -100 2413 -844 
z
" transform="scale(0.015625)"/>
      <path id="DejaVuSans-Bold-41" d="M 3419 850 
L 1538 850 
L 1241 0 
L 31 0 
L 1759 4666 
L 3194 4666 
L 4922 0 
L 3713 0 
L 3419 850 
z
M 1838 1716 
L 3116 1716 
L 2478 3572 
L 1838 1716 
z
" transform="scale(0.015625)"/>
      <path id="DejaVuSans-Bold-62" d="M 2400 722 
Q 2759 722 2948 984 
Q 3138 1247 3138 1747 
Q 3138 2247 2948 2509 
Q 2759 2772 2400 2772 
Q 2041 2772 1848 2508 
Q 1656 2244 1656 1747 
Q 1656 1250 1848 986 
Q 2041 722 2400 722 
z
M 1656 2988 
Q 1888 3294 2169 3439 
Q 2450 3584 2816 3584 
Q 3463 3584 3878 3070 
Q 4294 2556 4294 1747 
Q 4294 938 3878 423 
Q 3463 -91 2816 -91 
Q 2450 -91 2169 54 
Q 1888 200 1656 506 
L 1656 0 
L 538 0 
L 538 4863 
L 1656 4863 
L 1656 2988 
z
" transform="scale(0.015625)"/>
      <path id="DejaVuSans-Bold-64" d="M 2919 2988 
L 2919 4863 
L 4044 4863 
L 4044 0 
L 2919 0 
L 2919 506 
Q 2688 197 2409 53 
Q 2131 -91 1766 -91 
Q 1119 -91 703 423 
Q 288 938 288 1747 
Q 288 2556 703 3070 
Q 1119 3584 1766 3584 
Q 2128 3584 2408 3439 
Q 2688 3294 2919 2988 
z
M 2181 722 
Q 2541 722 2730 984 
Q 2919 1247 2919 1747 
Q 2919 2247 2730 2509 
Q 2541 2772 2181 2772 
Q 1825 2772 1636 2509 
Q 1447 2247 1447 1747 
Q 1447 1247 1636 984 
Q 1825 722 2181 722 
z
" transform="scale(0.015625)"/>
      <path id="DejaVuSans-Bold-46" d="M 588 4666 
L 3834 4666 
L 3834 3756 
L 1791 3756 
L 1791 2888 
L 3713 2888 
L 3713 1978 
L 1791 1978 
L 1791 0 
L 588 0 
L 588 4666 
z
" transform="scale(0.015625)"/>
      <path id="DejaVuSans-Bold-2e" d="M 653 1209 
L 1778 1209 
L 1778 0 
L 653 0 
L 653 1209 
z
" transform="scale(0.015625)"/>
      <path id="DejaVuSans-Bold-34" d="M 2356 3675 
L 1038 1722 
L 2356 1722 
L 2356 3675 
z
M 2156 4666 
L 3494 4666 
L 3494 1722 
L 4159 1722 
L 4159 850 
L 3494 850 
L 3494 0 
L 2356 0 
L 2356 850 
L 288 850 
L 288 1881 
L 2156 4666 
z
" transform="scale(0.015625)"/>
      <path id="DejaVuSans-Bold-73" d="M 3272 3391 
L 3272 2541 
Q 2913 2691 2578 2766 
Q 2244 2841 1947 2841 
Q 1628 2841 1473 2761 
Q 1319 2681 1319 2516 
Q 1319 2381 1436 2309 
Q 1553 2238 1856 2203 
L 2053 2175 
Q 2913 2066 3209 1816 
Q 3506 1566 3506 1031 
Q 3506 472 3093 190 
Q 2681 -91 1863 -91 
Q 1516 -91 1145 -36 
Q 775 19 384 128 
L 384 978 
Q 719 816 1070 734 
Q 1422 653 1784 653 
Q 2113 653 2278 743 
Q 2444 834 2444 1013 
Q 2444 1163 2330 1236 
Q 2216 1309 1875 1350 
L 1678 1375 
Q 931 1469 631 1722 
Q 331 1975 331 2491 
Q 331 3047 712 3315 
Q 1094 3584 1881 3584 
Q 2191 3584 2531 3537 
Q 2872 3491 3272 3391 
z
" transform="scale(0.015625)"/>
      <path id="DejaVuSans-Bold-79" d="M 78 3500 
L 1197 3500 
L 2138 1125 
L 2938 3500 
L 4056 3500 
L 2584 -331 
Q 2363 -916 2067 -1148 
Q 1772 -1381 1288 -1381 
L 641 -1381 
L 641 -647 
L 991 -647 
Q 1275 -647 1404 -556 
Q 1534 -466 1606 -231 
L 1638 -134 
L 78 3500 
z
" transform="scale(0.015625)"/>
      <path id="DejaVuSans-Bold-29" d="M 513 -844 
Q 913 -100 1113 609 
Q 1313 1319 1313 2009 
Q 1313 2700 1113 3408 
Q 913 4116 513 4856 
L 1441 4856 
Q 1916 4091 2145 3389 
Q 2375 2688 2375 2003 
Q 2375 1319 2147 623 
Q 1919 -72 1441 -844 
L 513 -844 
z
" transform="scale(0.015625)"/>
     </defs>
     <use xlink:href="#DejaVuSans-Bold-28"/>
     <use xlink:href="#DejaVuSans-Bold-41" transform="translate(45.703125 0)"/>
     <use xlink:href="#DejaVuSans-Bold-62" transform="translate(123.095703 0)"/>
     <use xlink:href="#DejaVuSans-Bold-64" transform="translate(194.677734 0)"/>
     <use xlink:href="#DejaVuSans-Bold-6f" transform="translate(266.259766 0)"/>
     <use xlink:href="#DejaVuSans-Bold-6c" transform="translate(334.960938 0)"/>
     <use xlink:href="#DejaVuSans-Bold-69" transform="translate(369.238281 0)"/>
     <use xlink:href="#DejaVuSans-Bold-20" transform="translate(403.515625 0)"/>
     <use xlink:href="#DejaVuSans-Bold-46" transform="translate(438.330078 0)"/>
     <use xlink:href="#DejaVuSans-Bold-69" transform="translate(506.640625 0)"/>
     <use xlink:href="#DejaVuSans-Bold-67" transform="translate(540.917969 0)"/>
     <use xlink:href="#DejaVuSans-Bold-2e" transform="translate(612.5 0)"/>
     <use xlink:href="#DejaVuSans-Bold-20" transform="translate(650.488281 0)"/>
     <use xlink:href="#DejaVuSans-Bold-34" transform="translate(685.302734 0)"/>
     <use xlink:href="#DejaVuSans-Bold-20" transform="translate(754.882812 0)"/>
     <use xlink:href="#DejaVuSans-Bold-73" transform="translate(789.697266 0)"/>
     <use xlink:href="#DejaVuSans-Bold-74" transform="translate(849.21875 0)"/>
     <use xlink:href="#DejaVuSans-Bold-79" transform="translate(897.021484 0)"/>
     <use xlink:href="#DejaVuSans-Bold-6c" transform="translate(962.207031 0)"/>
     <use xlink:href="#DejaVuSans-Bold-65" transform="translate(996.484375 0)"/>
     <use xlink:href="#DejaVuSans-Bold-29" transform="translate(1064.306641 0)"/>
    </g>
   </g>
  </g>
  <g id="axes_2">
   <g id="patch_13">
    <path d="M 462.15 126.972 
L 842.85 126.972 
L 842.85 96.7936 
L 462.15 96.7936 
z
" clip-path="url(#peafce11775)" style="fill: #d1fae5; stroke: #065f46; stroke-linejoin: miter"/>
   </g>
   <g id="patch_14">
    <path d="M 504.45 170.084 
L 800.55 170.084 
L 800.55 139.9056 
L 504.45 139.9056 
z
" clip-path="url(#peafce11775)" style="fill: #6ee7b7; stroke: #065f46; stroke-linejoin: miter"/>
   </g>
   <g id="patch_15">
    <path d="M 559.44 248.97896 
L 745.56 248.97896 
Q 746.829 248.97896 746.829 247.6856 
L 746.829 208.8848 
Q 746.829 207.59144 745.56 207.59144 
L 559.44 207.59144 
Q 558.171 207.59144 558.171 208.8848 
L 558.171 247.6856 
Q 558.171 248.97896 559.44 248.97896 
z
" clip-path="url(#peafce11775)" style="fill: #a7f3d0; stroke: #065f46; stroke-linejoin: miter"/>
   </g>
   <g id="patch_16">
    <path d="M 589.05 307.18016 
L 715.95 307.18016 
Q 717.219 307.18016 717.219 305.8868 
L 717.219 273.5528 
Q 717.219 272.25944 715.95 272.25944 
L 589.05 272.25944 
Q 587.781 272.25944 587.781 273.5528 
L 587.781 305.8868 
Q 587.781 307.18016 589.05 307.18016 
z
" clip-path="url(#peafce11775)" style="fill: #fef08a; stroke: #a16207; stroke-linejoin: miter"/>
   </g>
   <g id="line2d_2">
    <path d="M 466.38 111.8828 
L 471.927889 108.114806 
L 475.626482 105.981702 
L 477.475779 105.104471 
L 479.325075 104.380997 
L 481.174372 103.827692 
L 483.023668 103.457106 
L 484.872965 103.277646 
L 486.722261 103.293383 
L 488.571558 103.503959 
L 490.420854 103.904599 
L 492.270151 104.486213 
L 494.119447 105.235609 
L 495.968744 106.135789 
L 499.667337 108.303861 
L 505.215226 112.091756 
L 510.763116 115.837635 
L 514.461709 117.934518 
L 516.311005 118.788286 
L 518.160302 119.485412 
L 520.009598 120.010084 
L 521.858894 120.350398 
L 523.708191 120.498636 
L 525.557487 120.451435 
L 527.406784 120.209866 
L 529.25608 119.779408 
L 531.105377 119.169826 
L 532.954673 118.394948 
L 534.80397 117.47235 
L 538.502563 115.270582 
L 544.050452 111.46501 
L 547.749045 108.926356 
L 551.447638 106.654432 
L 553.296935 105.684017 
L 555.146231 104.854213 
L 556.995528 104.183844 
L 558.844824 103.688115 
L 560.694121 103.378272 
L 562.543417 103.261342 
L 564.392714 103.33998 
L 566.24201 103.6124 
L 568.091307 104.072423 
L 569.940603 104.709615 
L 571.789899 105.50952 
L 575.488492 107.521616 
L 579.187085 109.927179 
L 586.584271 115.034665 
L 590.282864 117.275791 
L 592.132161 118.225007 
L 593.981457 119.030359 
L 595.830754 119.673578 
L 597.68005 120.140074 
L 599.529347 120.419263 
L 601.378643 120.504815 
L 603.22794 120.394787 
L 605.077236 120.091676 
L 606.926533 119.602358 
L 608.775829 118.937931 
L 610.625126 118.113468 
L 614.323719 116.062446 
L 618.022312 113.634336 
L 625.419497 108.537365 
L 629.11809 106.328354 
L 630.967387 105.400894 
L 632.816683 104.620467 
L 634.66598 104.004776 
L 636.515276 103.567788 
L 638.364573 103.319416 
L 640.213869 103.265292 
L 642.063166 103.406645 
L 643.912462 103.740269 
L 645.761759 104.258596 
L 647.611055 104.949867 
L 649.460352 105.798403 
L 653.158945 107.887146 
L 656.857538 110.336378 
L 664.254724 115.419839 
L 667.953317 117.595438 
L 669.802613 118.500598 
L 671.65191 119.255642 
L 673.501206 119.843442 
L 675.350503 120.250666 
L 677.199799 120.468075 
L 679.049095 120.490739 
L 680.898392 120.318143 
L 682.747688 119.954203 
L 684.596985 119.407173 
L 686.446281 118.689462 
L 688.295578 117.817352 
L 691.994171 115.692114 
L 695.692764 113.2232 
L 703.08995 108.156234 
L 706.788543 106.015325 
L 708.637839 105.132998 
L 710.487136 104.403781 
L 712.336432 103.844216 
L 714.185729 103.466995 
L 716.035025 103.280677 
L 717.884322 103.289486 
L 719.733618 103.493223 
L 721.582915 103.887266 
L 723.432211 104.462678 
L 725.281508 105.206406 
L 727.130804 106.101579 
L 730.829397 108.262063 
L 734.52799 110.74921 
L 740.075879 114.598468 
L 743.774472 116.906159 
L 745.623769 117.901666 
L 747.473065 118.760642 
L 749.322362 119.463604 
L 751.171658 119.994605 
L 753.020955 120.3416 
L 754.870251 120.496719 
L 756.719548 120.456442 
L 758.568844 120.221683 
L 760.418141 119.797768 
L 762.267437 119.194312 
L 764.116734 118.425004 
L 765.96603 117.507294 
L 769.664623 115.312834 
L 775.212513 111.510961 
L 778.911106 108.969608 
L 782.609698 106.691084 
L 784.458995 105.716079 
L 786.308291 104.880958 
L 788.157588 104.204664 
L 790.006884 103.702539 
L 791.856181 103.385972 
L 793.705477 103.262145 
L 795.554774 103.333866 
L 797.40407 103.599509 
L 799.253367 104.053047 
L 801.102663 104.684192 
L 802.95196 105.478629 
L 806.650553 107.481997 
L 810.349146 109.882407 
L 819.595628 116.164375 
L 823.294221 118.193754 
L 825.143518 119.00453 
L 826.992814 119.653758 
L 828.842111 120.126712 
L 830.691407 120.412664 
L 832.540704 120.505127 
L 834.39 120.402004 
L 834.39 120.402004 
" clip-path="url(#peafce11775)" style="fill: none; stroke: #047857; stroke-width: 0.8; stroke-linecap: square"/>
   </g>
   <g id="text_9">
    <!-- X = full clip  [1, 64 000] -->
    <g transform="translate(585.794531 157.754175) scale(0.1 -0.1)">
     <defs>
      <path id="DejaVuSans-Bold-58" d="M 3188 2381 
L 4806 0 
L 3553 0 
L 2463 1594 
L 1381 0 
L 122 0 
L 1741 2381 
L 184 4666 
L 1441 4666 
L 2463 3163 
L 3481 4666 
L 4744 4666 
L 3188 2381 
z
" transform="scale(0.015625)"/>
      <path id="DejaVuSans-Bold-3d" d="M 678 3084 
L 4684 3084 
L 4684 2350 
L 678 2350 
L 678 3084 
z
M 678 1663 
L 4684 1663 
L 4684 922 
L 678 922 
L 678 1663 
z
" transform="scale(0.015625)"/>
      <path id="DejaVuSans-Bold-63" d="M 3366 3391 
L 3366 2478 
Q 3138 2634 2908 2709 
Q 2678 2784 2431 2784 
Q 1963 2784 1702 2511 
Q 1441 2238 1441 1747 
Q 1441 1256 1702 982 
Q 1963 709 2431 709 
Q 2694 709 2930 787 
Q 3166 866 3366 1019 
L 3366 103 
Q 3103 6 2833 -42 
Q 2563 -91 2291 -91 
Q 1344 -91 809 395 
Q 275 881 275 1747 
Q 275 2613 809 3098 
Q 1344 3584 2291 3584 
Q 2566 3584 2833 3536 
Q 3100 3488 3366 3391 
z
" transform="scale(0.015625)"/>
      <path id="DejaVuSans-Bold-70" d="M 1656 506 
L 1656 -1331 
L 538 -1331 
L 538 3500 
L 1656 3500 
L 1656 2988 
Q 1888 3294 2169 3439 
Q 2450 3584 2816 3584 
Q 3463 3584 3878 3070 
Q 4294 2556 4294 1747 
Q 4294 938 3878 423 
Q 3463 -91 2816 -91 
Q 2450 -91 2169 54 
Q 1888 200 1656 506 
z
M 2400 2772 
Q 2041 2772 1848 2508 
Q 1656 2244 1656 1747 
Q 1656 1250 1848 986 
Q 2041 722 2400 722 
Q 2759 722 2948 984 
Q 3138 1247 3138 1747 
Q 3138 2247 2948 2509 
Q 2759 2772 2400 2772 
z
" transform="scale(0.015625)"/>
      <path id="DejaVuSans-Bold-5b" d="M 550 4863 
L 2491 4863 
L 2491 4159 
L 1613 4159 
L 1613 -141 
L 2491 -141 
L 2491 -844 
L 550 -844 
L 550 4863 
z
" transform="scale(0.015625)"/>
      <path id="DejaVuSans-Bold-2c" d="M 653 1209 
L 1778 1209 
L 1778 256 
L 1006 -909 
L 341 -909 
L 653 256 
L 653 1209 
z
" transform="scale(0.015625)"/>
      <path id="DejaVuSans-Bold-36" d="M 2316 2303 
Q 2000 2303 1842 2098 
Q 1684 1894 1684 1484 
Q 1684 1075 1842 870 
Q 2000 666 2316 666 
Q 2634 666 2792 870 
Q 2950 1075 2950 1484 
Q 2950 1894 2792 2098 
Q 2634 2303 2316 2303 
z
M 3803 4544 
L 3803 3681 
Q 3506 3822 3243 3889 
Q 2981 3956 2731 3956 
Q 2194 3956 1894 3657 
Q 1594 3359 1544 2772 
Q 1750 2925 1990 3001 
Q 2231 3078 2516 3078 
Q 3231 3078 3670 2659 
Q 4109 2241 4109 1563 
Q 4109 813 3618 361 
Q 3128 -91 2303 -91 
Q 1394 -91 895 523 
Q 397 1138 397 2266 
Q 397 3422 980 4083 
Q 1563 4744 2578 4744 
Q 2900 4744 3203 4694 
Q 3506 4644 3803 4544 
z
" transform="scale(0.015625)"/>
      <path id="DejaVuSans-Bold-30" d="M 2944 2338 
Q 2944 3213 2780 3570 
Q 2616 3928 2228 3928 
Q 1841 3928 1675 3570 
Q 1509 3213 1509 2338 
Q 1509 1453 1675 1090 
Q 1841 728 2228 728 
Q 2613 728 2778 1090 
Q 2944 1453 2944 2338 
z
M 4147 2328 
Q 4147 1169 3647 539 
Q 3147 -91 2228 -91 
Q 1306 -91 806 539 
Q 306 1169 306 2328 
Q 306 3491 806 4120 
Q 1306 4750 2228 4750 
Q 3147 4750 3647 4120 
Q 4147 3491 4147 2328 
z
" transform="scale(0.015625)"/>
      <path id="DejaVuSans-Bold-5d" d="M 2375 -844 
L 434 -844 
L 434 -141 
L 1313 -141 
L 1313 4159 
L 434 4159 
L 434 4863 
L 2375 4863 
L 2375 -844 
z
" transform="scale(0.015625)"/>
     </defs>
     <use xlink:href="#DejaVuSans-Bold-58"/>
     <use xlink:href="#DejaVuSans-Bold-20" transform="translate(77.099609 0)"/>
     <use xlink:href="#DejaVuSans-Bold-3d" transform="translate(111.914062 0)"/>
     <use xlink:href="#DejaVuSans-Bold-20" transform="translate(195.703125 0)"/>
     <use xlink:href="#DejaVuSans-Bold-66" transform="translate(230.517578 0)"/>
     <use xlink:href="#DejaVuSans-Bold-75" transform="translate(274.023438 0)"/>
     <use xlink:href="#DejaVuSans-Bold-6c" transform="translate(345.214844 0)"/>
     <use xlink:href="#DejaVuSans-Bold-6c" transform="translate(379.492188 0)"/>
     <use xlink:href="#DejaVuSans-Bold-20" transform="translate(413.769531 0)"/>
     <use xlink:href="#DejaVuSans-Bold-63" transform="translate(448.583984 0)"/>
     <use xlink:href="#DejaVuSans-Bold-6c" transform="translate(507.861328 0)"/>
     <use xlink:href="#DejaVuSans-Bold-69" transform="translate(542.138672 0)"/>
     <use xlink:href="#DejaVuSans-Bold-70" transform="translate(576.416016 0)"/>
     <use xlink:href="#DejaVuSans-Bold-20" transform="translate(647.998047 0)"/>
     <use xlink:href="#DejaVuSans-Bold-20" transform="translate(682.8125 0)"/>
     <use xlink:href="#DejaVuSans-Bold-5b" transform="translate(717.626953 0)"/>
     <use xlink:href="#DejaVuSans-Bold-31" transform="translate(763.330078 0)"/>
     <use xlink:href="#DejaVuSans-Bold-2c" transform="translate(832.910156 0)"/>
     <use xlink:href="#DejaVuSans-Bold-20" transform="translate(870.898438 0)"/>
     <use xlink:href="#DejaVuSans-Bold-36" transform="translate(905.712891 0)"/>
     <use xlink:href="#DejaVuSans-Bold-34" transform="translate(975.292969 0)"/>
     <use xlink:href="#DejaVuSans-Bold-20" transform="translate(1044.873047 0)"/>
     <use xlink:href="#DejaVuSans-Bold-30" transform="translate(1079.6875 0)"/>
     <use xlink:href="#DejaVuSans-Bold-30" transform="translate(1149.267578 0)"/>
     <use xlink:href="#DejaVuSans-Bold-30" transform="translate(1218.847656 0)"/>
     <use xlink:href="#DejaVuSans-Bold-5d" transform="translate(1288.427734 0)"/>
    </g>
   </g>
   <g id="patch_17">
    <path d="M 652.5 172.087508 
Q 652.5 189.486716 652.5 205.208873 
" style="fill: none; stroke: #111111; stroke-width: 1.5; stroke-linecap: round"/>
    <path d="M 654.5 201.208873 
L 652.5 205.208873 
L 650.5 201.208873 
" style="fill: none; stroke: #111111; stroke-width: 1.5; stroke-linecap: round"/>
   </g>
   <g id="text_10">
    <!-- DS-Conv2D-H1 Pyramid -->
    <g transform="translate(586.186719 231.005512) scale(0.1 -0.1)">
     <defs>
      <path id="DejaVuSans-Bold-53" d="M 3834 4519 
L 3834 3531 
Q 3450 3703 3084 3790 
Q 2719 3878 2394 3878 
Q 1963 3878 1756 3759 
Q 1550 3641 1550 3391 
Q 1550 3203 1689 3098 
Q 1828 2994 2194 2919 
L 2706 2816 
Q 3484 2659 3812 2340 
Q 4141 2022 4141 1434 
Q 4141 663 3683 286 
Q 3225 -91 2284 -91 
Q 1841 -91 1394 -6 
Q 947 78 500 244 
L 500 1259 
Q 947 1022 1364 901 
Q 1781 781 2169 781 
Q 2563 781 2772 912 
Q 2981 1044 2981 1288 
Q 2981 1506 2839 1625 
Q 2697 1744 2272 1838 
L 1806 1941 
Q 1106 2091 782 2419 
Q 459 2747 459 3303 
Q 459 4000 909 4375 
Q 1359 4750 2203 4750 
Q 2588 4750 2994 4692 
Q 3400 4634 3834 4519 
z
" transform="scale(0.015625)"/>
      <path id="DejaVuSans-Bold-76" d="M 97 3500 
L 1216 3500 
L 2088 1081 
L 2956 3500 
L 4078 3500 
L 2700 0 
L 1472 0 
L 97 3500 
z
" transform="scale(0.015625)"/>
      <path id="DejaVuSans-Bold-32" d="M 1844 884 
L 3897 884 
L 3897 0 
L 506 0 
L 506 884 
L 2209 2388 
Q 2438 2594 2547 2791 
Q 2656 2988 2656 3200 
Q 2656 3528 2436 3728 
Q 2216 3928 1850 3928 
Q 1569 3928 1234 3808 
Q 900 3688 519 3450 
L 519 4475 
Q 925 4609 1322 4679 
Q 1719 4750 2100 4750 
Q 2938 4750 3402 4381 
Q 3866 4013 3866 3353 
Q 3866 2972 3669 2642 
Q 3472 2313 2841 1759 
L 1844 884 
z
" transform="scale(0.015625)"/>
      <path id="DejaVuSans-Bold-48" d="M 588 4666 
L 1791 4666 
L 1791 2888 
L 3566 2888 
L 3566 4666 
L 4769 4666 
L 4769 0 
L 3566 0 
L 3566 1978 
L 1791 1978 
L 1791 0 
L 588 0 
L 588 4666 
z
" transform="scale(0.015625)"/>
      <path id="DejaVuSans-Bold-50" d="M 588 4666 
L 2584 4666 
Q 3475 4666 3951 4270 
Q 4428 3875 4428 3144 
Q 4428 2409 3951 2014 
Q 3475 1619 2584 1619 
L 1791 1619 
L 1791 0 
L 588 0 
L 588 4666 
z
M 1791 3794 
L 1791 2491 
L 2456 2491 
Q 2806 2491 2997 2661 
Q 3188 2831 3188 3144 
Q 3188 3456 2997 3625 
Q 2806 3794 2456 3794 
L 1791 3794 
z
" transform="scale(0.015625)"/>
     </defs>
     <use xlink:href="#DejaVuSans-Bold-44"/>
     <use xlink:href="#DejaVuSans-Bold-53" transform="translate(83.007812 0)"/>
     <use xlink:href="#DejaVuSans-Bold-2d" transform="translate(155.029297 0)"/>
     <use xlink:href="#DejaVuSans-Bold-43" transform="translate(196.533203 0)"/>
     <use xlink:href="#DejaVuSans-Bold-6f" transform="translate(269.921875 0)"/>
     <use xlink:href="#DejaVuSans-Bold-6e" transform="translate(338.623047 0)"/>
     <use xlink:href="#DejaVuSans-Bold-76" transform="translate(409.814453 0)"/>
     <use xlink:href="#DejaVuSans-Bold-32" transform="translate(475 0)"/>
     <use xlink:href="#DejaVuSans-Bold-44" transform="translate(544.580078 0)"/>
     <use xlink:href="#DejaVuSans-Bold-2d" transform="translate(629.462891 0)"/>
     <use xlink:href="#DejaVuSans-Bold-48" transform="translate(670.966797 0)"/>
     <use xlink:href="#DejaVuSans-Bold-31" transform="translate(754.658203 0)"/>
     <use xlink:href="#DejaVuSans-Bold-20" transform="translate(824.238281 0)"/>
     <use xlink:href="#DejaVuSans-Bold-50" transform="translate(859.052734 0)"/>
     <use xlink:href="#DejaVuSans-Bold-79" transform="translate(934.21875 0)"/>
     <use xlink:href="#DejaVuSans-Bold-72" transform="translate(999.404297 0)"/>
     <use xlink:href="#DejaVuSans-Bold-61" transform="translate(1048.720703 0)"/>
     <use xlink:href="#DejaVuSans-Bold-6d" transform="translate(1116.201172 0)"/>
     <use xlink:href="#DejaVuSans-Bold-69" transform="translate(1220.400391 0)"/>
     <use xlink:href="#DejaVuSans-Bold-64" transform="translate(1254.677734 0)"/>
    </g>
   </g>
   <g id="patch_18">
    <path d="M 652.5 249.684372 
Q 652.5 260.617755 652.5 269.874088 
" style="fill: none; stroke: #111111; stroke-width: 1.5; stroke-linecap: round"/>
    <path d="M 654.5 265.874088 
L 652.5 269.874088 
L 650.5 265.874088 
" style="fill: none; stroke: #111111; stroke-width: 1.5; stroke-linecap: round"/>
   </g>
   <g id="text_11">
    <!-- Decision (10 logits) -->
    <g transform="translate(609.025078 292.418797) scale(0.09 -0.09)">
     <defs>
      <path id="DejaVuSans-28" d="M 1984 4856 
Q 1566 4138 1362 3434 
Q 1159 2731 1159 2009 
Q 1159 1288 1364 580 
Q 1569 -128 1984 -844 
L 1484 -844 
Q 1016 -109 783 600 
Q 550 1309 550 2009 
Q 550 2706 781 3412 
Q 1013 4119 1484 4856 
L 1984 4856 
z
" transform="scale(0.015625)"/>
      <path id="DejaVuSans-31" d="M 794 531 
L 1825 531 
L 1825 4091 
L 703 3866 
L 703 4441 
L 1819 4666 
L 2450 4666 
L 2450 531 
L 3481 531 
L 3481 0 
L 794 0 
L 794 531 
z
" transform="scale(0.015625)"/>
      <path id="DejaVuSans-30" d="M 2034 4250 
Q 1547 4250 1301 3770 
Q 1056 3291 1056 2328 
Q 1056 1369 1301 889 
Q 1547 409 2034 409 
Q 2525 409 2770 889 
Q 3016 1369 3016 2328 
Q 3016 3291 2770 3770 
Q 2525 4250 2034 4250 
z
M 2034 4750 
Q 2819 4750 3233 4129 
Q 3647 3509 3647 2328 
Q 3647 1150 3233 529 
Q 2819 -91 2034 -91 
Q 1250 -91 836 529 
Q 422 1150 422 2328 
Q 422 3509 836 4129 
Q 1250 4750 2034 4750 
z
" transform="scale(0.015625)"/>
      <path id="DejaVuSans-29" d="M 513 4856 
L 1013 4856 
Q 1481 4119 1714 3412 
Q 1947 2706 1947 2009 
Q 1947 1309 1714 600 
Q 1481 -109 1013 -844 
L 513 -844 
Q 928 -128 1133 580 
Q 1338 1288 1338 2009 
Q 1338 2731 1133 3434 
Q 928 4138 513 4856 
z
" transform="scale(0.015625)"/>
     </defs>
     <use xlink:href="#DejaVuSans-44"/>
     <use xlink:href="#DejaVuSans-65" transform="translate(77.001953 0)"/>
     <use xlink:href="#DejaVuSans-63" transform="translate(138.525391 0)"/>
     <use xlink:href="#DejaVuSans-69" transform="translate(193.505859 0)"/>
     <use xlink:href="#DejaVuSans-73" transform="translate(221.289062 0)"/>
     <use xlink:href="#DejaVuSans-69" transform="translate(273.388672 0)"/>
     <use xlink:href="#DejaVuSans-6f" transform="translate(301.171875 0)"/>
     <use xlink:href="#DejaVuSans-6e" transform="translate(362.353516 0)"/>
     <use xlink:href="#DejaVuSans-20" transform="translate(425.732422 0)"/>
     <use xlink:href="#DejaVuSans-28" transform="translate(457.519531 0)"/>
     <use xlink:href="#DejaVuSans-31" transform="translate(496.533203 0)"/>
     <use xlink:href="#DejaVuSans-30" transform="translate(560.15625 0)"/>
     <use xlink:href="#DejaVuSans-20" transform="translate(623.779297 0)"/>
     <use xlink:href="#DejaVuSans-6c" transform="translate(655.566406 0)"/>
     <use xlink:href="#DejaVuSans-6f" transform="translate(683.349609 0)"/>
     <use xlink:href="#DejaVuSans-67" transform="translate(744.53125 0)"/>
     <use xlink:href="#DejaVuSans-69" transform="translate(808.007812 0)"/>
     <use xlink:href="#DejaVuSans-74" transform="translate(835.791016 0)"/>
     <use xlink:href="#DejaVuSans-73" transform="translate(875 0)"/>
     <use xlink:href="#DejaVuSans-29" transform="translate(927.099609 0)"/>
    </g>
   </g>
   <g id="text_12">
    <!-- One forward · ~61.9 M MACs/clip · DPU-friendly -->
    <g style="fill: #6b7280" transform="translate(557.524375 83.86) scale(0.08 -0.08)">
     <defs>
      <path id="DejaVuSans-4f" d="M 2522 4238 
Q 1834 4238 1429 3725 
Q 1025 3213 1025 2328 
Q 1025 1447 1429 934 
Q 1834 422 2522 422 
Q 3209 422 3611 934 
Q 4013 1447 4013 2328 
Q 4013 3213 3611 3725 
Q 3209 4238 2522 4238 
z
M 2522 4750 
Q 3503 4750 4090 4092 
Q 4678 3434 4678 2328 
Q 4678 1225 4090 567 
Q 3503 -91 2522 -91 
Q 1538 -91 948 565 
Q 359 1222 359 2328 
Q 359 3434 948 4092 
Q 1538 4750 2522 4750 
z
" transform="scale(0.015625)"/>
      <path id="DejaVuSans-77" d="M 269 3500 
L 844 3500 
L 1563 769 
L 2278 3500 
L 2956 3500 
L 3675 769 
L 4391 3500 
L 4966 3500 
L 4050 0 
L 3372 0 
L 2619 2869 
L 1863 0 
L 1184 0 
L 269 3500 
z
" transform="scale(0.015625)"/>
      <path id="DejaVuSans-64" d="M 2906 2969 
L 2906 4863 
L 3481 4863 
L 3481 0 
L 2906 0 
L 2906 525 
Q 2725 213 2448 61 
Q 2172 -91 1784 -91 
Q 1150 -91 751 415 
Q 353 922 353 1747 
Q 353 2572 751 3078 
Q 1150 3584 1784 3584 
Q 2172 3584 2448 3432 
Q 2725 3281 2906 2969 
z
M 947 1747 
Q 947 1113 1208 752 
Q 1469 391 1925 391 
Q 2381 391 2643 752 
Q 2906 1113 2906 1747 
Q 2906 2381 2643 2742 
Q 2381 3103 1925 3103 
Q 1469 3103 1208 2742 
Q 947 2381 947 1747 
z
" transform="scale(0.015625)"/>
      <path id="DejaVuSans-7e" d="M 4684 2553 
L 4684 1997 
Q 4356 1750 4076 1644 
Q 3797 1538 3494 1538 
Q 3150 1538 2694 1722 
Q 2659 1734 2644 1741 
Q 2622 1750 2575 1766 
Q 2091 1959 1797 1959 
Q 1522 1959 1253 1839 
Q 984 1719 678 1459 
L 678 2016 
Q 1006 2263 1286 2370 
Q 1566 2478 1869 2478 
Q 2213 2478 2672 2291 
Q 2703 2278 2719 2272 
Q 2744 2263 2788 2247 
Q 3272 2053 3566 2053 
Q 3834 2053 4098 2172 
Q 4363 2291 4684 2553 
z
" transform="scale(0.015625)"/>
      <path id="DejaVuSans-36" d="M 2113 2584 
Q 1688 2584 1439 2293 
Q 1191 2003 1191 1497 
Q 1191 994 1439 701 
Q 1688 409 2113 409 
Q 2538 409 2786 701 
Q 3034 994 3034 1497 
Q 3034 2003 2786 2293 
Q 2538 2584 2113 2584 
z
M 3366 4563 
L 3366 3988 
Q 3128 4100 2886 4159 
Q 2644 4219 2406 4219 
Q 1781 4219 1451 3797 
Q 1122 3375 1075 2522 
Q 1259 2794 1537 2939 
Q 1816 3084 2150 3084 
Q 2853 3084 3261 2657 
Q 3669 2231 3669 1497 
Q 3669 778 3244 343 
Q 2819 -91 2113 -91 
Q 1303 -91 875 529 
Q 447 1150 447 2328 
Q 447 3434 972 4092 
Q 1497 4750 2381 4750 
Q 2619 4750 2861 4703 
Q 3103 4656 3366 4563 
z
" transform="scale(0.015625)"/>
      <path id="DejaVuSans-2e" d="M 684 794 
L 1344 794 
L 1344 0 
L 684 0 
L 684 794 
z
" transform="scale(0.015625)"/>
      <path id="DejaVuSans-39" d="M 703 97 
L 703 672 
Q 941 559 1184 500 
Q 1428 441 1663 441 
Q 2288 441 2617 861 
Q 2947 1281 2994 2138 
Q 2813 1869 2534 1725 
Q 2256 1581 1919 1581 
Q 1219 1581 811 2004 
Q 403 2428 403 3163 
Q 403 3881 828 4315 
Q 1253 4750 1959 4750 
Q 2769 4750 3195 4129 
Q 3622 3509 3622 2328 
Q 3622 1225 3098 567 
Q 2575 -91 1691 -91 
Q 1453 -91 1209 -44 
Q 966 3 703 97 
z
M 1959 2075 
Q 2384 2075 2632 2365 
Q 2881 2656 2881 3163 
Q 2881 3666 2632 3958 
Q 2384 4250 1959 4250 
Q 1534 4250 1286 3958 
Q 1038 3666 1038 3163 
Q 1038 2656 1286 2365 
Q 1534 2075 1959 2075 
z
" transform="scale(0.015625)"/>
      <path id="DejaVuSans-50" d="M 1259 4147 
L 1259 2394 
L 2053 2394 
Q 2494 2394 2734 2622 
Q 2975 2850 2975 3272 
Q 2975 3691 2734 3919 
Q 2494 4147 2053 4147 
L 1259 4147 
z
M 628 4666 
L 2053 4666 
Q 2838 4666 3239 4311 
Q 3641 3956 3641 3272 
Q 3641 2581 3239 2228 
Q 2838 1875 2053 1875 
L 1259 1875 
L 1259 0 
L 628 0 
L 628 4666 
z
" transform="scale(0.015625)"/>
      <path id="DejaVuSans-2d" d="M 313 2009 
L 1997 2009 
L 1997 1497 
L 313 1497 
L 313 2009 
z
" transform="scale(0.015625)"/>
     </defs>
     <use xlink:href="#DejaVuSans-4f"/>
     <use xlink:href="#DejaVuSans-6e" transform="translate(78.710938 0)"/>
     <use xlink:href="#DejaVuSans-65" transform="translate(142.089844 0)"/>
     <use xlink:href="#DejaVuSans-20" transform="translate(203.613281 0)"/>
     <use xlink:href="#DejaVuSans-66" transform="translate(235.400391 0)"/>
     <use xlink:href="#DejaVuSans-6f" transform="translate(270.605469 0)"/>
     <use xlink:href="#DejaVuSans-72" transform="translate(331.787109 0)"/>
     <use xlink:href="#DejaVuSans-77" transform="translate(372.900391 0)"/>
     <use xlink:href="#DejaVuSans-61" transform="translate(454.6875 0)"/>
     <use xlink:href="#DejaVuSans-72" transform="translate(515.966797 0)"/>
     <use xlink:href="#DejaVuSans-64" transform="translate(555.330078 0)"/>
     <use xlink:href="#DejaVuSans-20" transform="translate(618.806641 0)"/>
     <use xlink:href="#DejaVuSans-b7" transform="translate(650.59375 0)"/>
     <use xlink:href="#DejaVuSans-20" transform="translate(682.380859 0)"/>
     <use xlink:href="#DejaVuSans-7e" transform="translate(714.167969 0)"/>
     <use xlink:href="#DejaVuSans-36" transform="translate(797.957031 0)"/>
     <use xlink:href="#DejaVuSans-31" transform="translate(861.580078 0)"/>
     <use xlink:href="#DejaVuSans-2e" transform="translate(925.203125 0)"/>
     <use xlink:href="#DejaVuSans-39" transform="translate(956.990234 0)"/>
     <use xlink:href="#DejaVuSans-20" transform="translate(1020.613281 0)"/>
     <use xlink:href="#DejaVuSans-4d" transform="translate(1052.400391 0)"/>
     <use xlink:href="#DejaVuSans-20" transform="translate(1138.679688 0)"/>
     <use xlink:href="#DejaVuSans-4d" transform="translate(1170.466797 0)"/>
     <use xlink:href="#DejaVuSans-41" transform="translate(1256.746094 0)"/>
     <use xlink:href="#DejaVuSans-43" transform="translate(1323.404297 0)"/>
     <use xlink:href="#DejaVuSans-73" transform="translate(1393.228516 0)"/>
     <use xlink:href="#DejaVuSans-2f" transform="translate(1445.328125 0)"/>
     <use xlink:href="#DejaVuSans-63" transform="translate(1479.019531 0)"/>
     <use xlink:href="#DejaVuSans-6c" transform="translate(1534 0)"/>
     <use xlink:href="#DejaVuSans-69" transform="translate(1561.783203 0)"/>
     <use xlink:href="#DejaVuSans-70" transform="translate(1589.566406 0)"/>
     <use xlink:href="#DejaVuSans-20" transform="translate(1653.042969 0)"/>
     <use xlink:href="#DejaVuSans-b7" transform="translate(1684.830078 0)"/>
     <use xlink:href="#DejaVuSans-20" transform="translate(1716.617188 0)"/>
     <use xlink:href="#DejaVuSans-44" transform="translate(1748.404297 0)"/>
     <use xlink:href="#DejaVuSans-50" transform="translate(1825.40625 0)"/>
     <use xlink:href="#DejaVuSans-55" transform="translate(1885.708984 0)"/>
     <use xlink:href="#DejaVuSans-2d" transform="translate(1958.902344 0)"/>
     <use xlink:href="#DejaVuSans-66" transform="translate(1994.986328 0)"/>
     <use xlink:href="#DejaVuSans-72" transform="translate(2030.191406 0)"/>
     <use xlink:href="#DejaVuSans-69" transform="translate(2071.304688 0)"/>
     <use xlink:href="#DejaVuSans-65" transform="translate(2099.087891 0)"/>
     <use xlink:href="#DejaVuSans-6e" transform="translate(2160.611328 0)"/>
     <use xlink:href="#DejaVuSans-64" transform="translate(2223.990234 0)"/>
     <use xlink:href="#DejaVuSans-6c" transform="translate(2287.466797 0)"/>
     <use xlink:href="#DejaVuSans-79" transform="translate(2315.25 0)"/>
    </g>
   </g>
   <g id="text_13">
    <!-- This work — full-clip single forward -->
    <g transform="translate(543.088672 43.900469) scale(0.11 -0.11)">
     <defs>
      <path id="DejaVuSans-Bold-54" d="M 31 4666 
L 4331 4666 
L 4331 3756 
L 2784 3756 
L 2784 0 
L 1581 0 
L 1581 3756 
L 31 3756 
L 31 4666 
z
" transform="scale(0.015625)"/>
      <path id="DejaVuSans-Bold-68" d="M 4056 2131 
L 4056 0 
L 2931 0 
L 2931 347 
L 2931 1625 
Q 2931 2084 2911 2256 
Q 2891 2428 2841 2509 
Q 2775 2619 2662 2680 
Q 2550 2741 2406 2741 
Q 2056 2741 1856 2470 
Q 1656 2200 1656 1722 
L 1656 0 
L 538 0 
L 538 4863 
L 1656 4863 
L 1656 2988 
Q 1909 3294 2193 3439 
Q 2478 3584 2822 3584 
Q 3428 3584 3742 3212 
Q 4056 2841 4056 2131 
z
" transform="scale(0.015625)"/>
      <path id="DejaVuSans-Bold-77" d="M 225 3500 
L 1313 3500 
L 1900 1088 
L 2491 3500 
L 3425 3500 
L 4013 1113 
L 4603 3500 
L 5691 3500 
L 4769 0 
L 3547 0 
L 2956 2406 
L 2369 0 
L 1147 0 
L 225 3500 
z
" transform="scale(0.015625)"/>
      <path id="DejaVuSans-Bold-6b" d="M 538 4863 
L 1656 4863 
L 1656 2216 
L 2944 3500 
L 4244 3500 
L 2534 1894 
L 4378 0 
L 3022 0 
L 1656 1459 
L 1656 0 
L 538 0 
L 538 4863 
z
" transform="scale(0.015625)"/>
      <path id="DejaVuSans-Bold-2014" d="M 344 2156 
L 6056 2156 
L 6056 1350 
L 344 1350 
L 344 2156 
z
" transform="scale(0.015625)"/>
     </defs>
     <use xlink:href="#DejaVuSans-Bold-54"/>
     <use xlink:href="#DejaVuSans-Bold-68" transform="translate(68.212891 0)"/>
     <use xlink:href="#DejaVuSans-Bold-69" transform="translate(139.404297 0)"/>
     <use xlink:href="#DejaVuSans-Bold-73" transform="translate(173.681641 0)"/>
     <use xlink:href="#DejaVuSans-Bold-20" transform="translate(233.203125 0)"/>
     <use xlink:href="#DejaVuSans-Bold-77" transform="translate(268.017578 0)"/>
     <use xlink:href="#DejaVuSans-Bold-6f" transform="translate(360.400391 0)"/>
     <use xlink:href="#DejaVuSans-Bold-72" transform="translate(429.101562 0)"/>
     <use xlink:href="#DejaVuSans-Bold-6b" transform="translate(478.417969 0)"/>
     <use xlink:href="#DejaVuSans-Bold-20" transform="translate(544.921875 0)"/>
     <use xlink:href="#DejaVuSans-Bold-2014" transform="translate(579.736328 0)"/>
     <use xlink:href="#DejaVuSans-Bold-20" transform="translate(679.736328 0)"/>
     <use xlink:href="#DejaVuSans-Bold-66" transform="translate(714.550781 0)"/>
     <use xlink:href="#DejaVuSans-Bold-75" transform="translate(758.056641 0)"/>
     <use xlink:href="#DejaVuSans-Bold-6c" transform="translate(829.248047 0)"/>
     <use xlink:href="#DejaVuSans-Bold-6c" transform="translate(863.525391 0)"/>
     <use xlink:href="#DejaVuSans-Bold-2d" transform="translate(897.802734 0)"/>
     <use xlink:href="#DejaVuSans-Bold-63" transform="translate(939.306641 0)"/>
     <use xlink:href="#DejaVuSans-Bold-6c" transform="translate(998.583984 0)"/>
     <use xlink:href="#DejaVuSans-Bold-69" transform="translate(1032.861328 0)"/>
     <use xlink:href="#DejaVuSans-Bold-70" transform="translate(1067.138672 0)"/>
     <use xlink:href="#DejaVuSans-Bold-20" transform="translate(1138.720703 0)"/>
     <use xlink:href="#DejaVuSans-Bold-73" transform="translate(1173.535156 0)"/>
     <use xlink:href="#DejaVuSans-Bold-69" transform="translate(1233.056641 0)"/>
     <use xlink:href="#DejaVuSans-Bold-6e" transform="translate(1267.333984 0)"/>
     <use xlink:href="#DejaVuSans-Bold-67" transform="translate(1338.525391 0)"/>
     <use xlink:href="#DejaVuSans-Bold-6c" transform="translate(1410.107422 0)"/>
     <use xlink:href="#DejaVuSans-Bold-65" transform="translate(1444.384766 0)"/>
     <use xlink:href="#DejaVuSans-Bold-20" transform="translate(1512.207031 0)"/>
     <use xlink:href="#DejaVuSans-Bold-66" transform="translate(1547.021484 0)"/>
     <use xlink:href="#DejaVuSans-Bold-6f" transform="translate(1590.527344 0)"/>
     <use xlink:href="#DejaVuSans-Bold-72" transform="translate(1659.228516 0)"/>
     <use xlink:href="#DejaVuSans-Bold-77" transform="translate(1708.544922 0)"/>
     <use xlink:href="#DejaVuSans-Bold-61" transform="translate(1800.927734 0)"/>
     <use xlink:href="#DejaVuSans-Bold-72" transform="translate(1868.408203 0)"/>
     <use xlink:href="#DejaVuSans-Bold-64" transform="translate(1917.724609 0)"/>
    </g>
    <!-- (DS-Conv2D-H1 Pyramid) -->
    <g transform="translate(574.528047 56.304) scale(0.11 -0.11)">
     <use xlink:href="#DejaVuSans-Bold-28"/>
     <use xlink:href="#DejaVuSans-Bold-44" transform="translate(45.703125 0)"/>
     <use xlink:href="#DejaVuSans-Bold-53" transform="translate(128.710938 0)"/>
     <use xlink:href="#DejaVuSans-Bold-2d" transform="translate(200.732422 0)"/>
     <use xlink:href="#DejaVuSans-Bold-43" transform="translate(242.236328 0)"/>
     <use xlink:href="#DejaVuSans-Bold-6f" transform="translate(315.625 0)"/>
     <use xlink:href="#DejaVuSans-Bold-6e" transform="translate(384.326172 0)"/>
     <use xlink:href="#DejaVuSans-Bold-76" transform="translate(455.517578 0)"/>
     <use xlink:href="#DejaVuSans-Bold-32" transform="translate(520.703125 0)"/>
     <use xlink:href="#DejaVuSans-Bold-44" transform="translate(590.283203 0)"/>
     <use xlink:href="#DejaVuSans-Bold-2d" transform="translate(675.166016 0)"/>
     <use xlink:href="#DejaVuSans-Bold-48" transform="translate(716.669922 0)"/>
     <use xlink:href="#DejaVuSans-Bold-31" transform="translate(800.361328 0)"/>
     <use xlink:href="#DejaVuSans-Bold-20" transform="translate(869.941406 0)"/>
     <use xlink:href="#DejaVuSans-Bold-50" transform="translate(904.755859 0)"/>
     <use xlink:href="#DejaVuSans-Bold-79" transform="translate(979.921875 0)"/>
     <use xlink:href="#DejaVuSans-Bold-72" transform="translate(1045.107422 0)"/>
     <use xlink:href="#DejaVuSans-Bold-61" transform="translate(1094.423828 0)"/>
     <use xlink:href="#DejaVuSans-Bold-6d" transform="translate(1161.904297 0)"/>
     <use xlink:href="#DejaVuSans-Bold-69" transform="translate(1266.103516 0)"/>
     <use xlink:href="#DejaVuSans-Bold-64" transform="translate(1300.380859 0)"/>
     <use xlink:href="#DejaVuSans-Bold-29" transform="translate(1371.962891 0)"/>
    </g>
   </g>
  </g>
  <g id="text_14">
   <!-- Inference path comparison -->
   <g transform="translate(336.989922 17.077969) scale(0.13 -0.13)">
    <defs>
     <path id="DejaVuSans-Bold-49" d="M 588 4666 
L 1791 4666 
L 1791 0 
L 588 0 
L 588 4666 
z
" transform="scale(0.015625)"/>
    </defs>
    <use xlink:href="#DejaVuSans-Bold-49"/>
    <use xlink:href="#DejaVuSans-Bold-6e" transform="translate(37.207031 0)"/>
    <use xlink:href="#DejaVuSans-Bold-66" transform="translate(108.398438 0)"/>
    <use xlink:href="#DejaVuSans-Bold-65" transform="translate(151.904297 0)"/>
    <use xlink:href="#DejaVuSans-Bold-72" transform="translate(219.726562 0)"/>
    <use xlink:href="#DejaVuSans-Bold-65" transform="translate(269.042969 0)"/>
    <use xlink:href="#DejaVuSans-Bold-6e" transform="translate(336.865234 0)"/>
    <use xlink:href="#DejaVuSans-Bold-63" transform="translate(408.056641 0)"/>
    <use xlink:href="#DejaVuSans-Bold-65" transform="translate(467.333984 0)"/>
    <use xlink:href="#DejaVuSans-Bold-20" transform="translate(535.15625 0)"/>
    <use xlink:href="#DejaVuSans-Bold-70" transform="translate(569.970703 0)"/>
    <use xlink:href="#DejaVuSans-Bold-61" transform="translate(641.552734 0)"/>
    <use xlink:href="#DejaVuSans-Bold-74" transform="translate(709.033203 0)"/>
    <use xlink:href="#DejaVuSans-Bold-68" transform="translate(756.835938 0)"/>
    <use xlink:href="#DejaVuSans-Bold-20" transform="translate(828.027344 0)"/>
    <use xlink:href="#DejaVuSans-Bold-63" transform="translate(862.841797 0)"/>
    <use xlink:href="#DejaVuSans-Bold-6f" transform="translate(922.119141 0)"/>
    <use xlink:href="#DejaVuSans-Bold-6d" transform="translate(990.820312 0)"/>
    <use xlink:href="#DejaVuSans-Bold-70" transform="translate(1095.019531 0)"/>
    <use xlink:href="#DejaVuSans-Bold-61" transform="translate(1166.601562 0)"/>
    <use xlink:href="#DejaVuSans-Bold-72" transform="translate(1234.082031 0)"/>
    <use xlink:href="#DejaVuSans-Bold-69" transform="translate(1283.398438 0)"/>
    <use xlink:href="#DejaVuSans-Bold-73" transform="translate(1317.675781 0)"/>
    <use xlink:href="#DejaVuSans-Bold-6f" transform="translate(1377.197266 0)"/>
    <use xlink:href="#DejaVuSans-Bold-6e" transform="translate(1445.898438 0)"/>
   </g>
  </g>
 </g>
 <defs>
  <clipPath id="p1f17e4f854">
   <rect x="7.2" y="62.304" width="423" height="258.672"/>
  </clipPath>
  <clipPath id="peafce11775">
   <rect x="441" y="62.304" width="423" height="258.672"/>
  </clipPath>
 </defs>
</svg>
